<svg width="32" height="32" viewBox="0 0 32 32" fill="none" xmlns="http://www.w3.org/2000/svg">
<path fill-rule="evenodd" clip-rule="evenodd" d="M12.2641 21.0487C12.0517 21.0487 11.8791 20.876 11.8791 20.6636V10.7894C11.8791 9.83254 12.6575 9.05408 13.6144 9.05408C14.5719 9.05408 15.3504 9.83254 15.3504 10.7894V18.1318C15.3504 18.3443 15.1777 18.5169 14.9653 18.5169C14.7522 18.5169 14.5802 18.3443 14.5802 18.1318V10.7894C14.5802 10.2574 14.1471 9.8242 13.615 9.8242C13.0824 9.8242 12.6498 10.2574 12.6498 10.7894V20.6636C12.6492 20.876 12.4772 21.0487 12.2641 21.0487Z" fill="#FF717D"/>
<path d="M15.0306 10.79C15.0306 10.0102 14.3956 9.37472 13.615 9.37439C12.8349 9.37439 12.1994 10.0099 12.1994 10.79V20.6635C12.1994 20.6989 12.228 20.7287 12.2634 20.7291C12.299 20.7291 12.3285 20.7 12.3291 20.6635V10.79C12.3291 10.0814 12.9055 9.5041 13.615 9.50408C14.3238 9.50408 14.9009 10.0813 14.9009 10.79V18.1322C14.9011 18.168 14.9293 18.1961 14.965 18.1963C15.0006 18.1963 15.0304 18.1677 15.0306 18.1322V10.79ZM15.6697 18.1322C15.6695 18.5212 15.354 18.8369 14.965 18.8369C14.5751 18.8367 14.2605 18.5207 14.2603 18.1322V10.79C14.2603 10.4347 13.9703 10.1447 13.615 10.1447C13.2592 10.1447 12.9697 10.4346 12.9697 10.79V20.665C12.9683 21.0527 12.6536 21.3681 12.2634 21.3681C11.8746 21.3678 11.5587 21.0524 11.5587 20.6635V10.79C11.5587 9.65641 12.4814 8.73376 13.615 8.73376C14.7489 8.73409 15.6697 9.65654 15.6697 10.79V18.1322Z" fill="#FF717D"/>
<path fill-rule="evenodd" clip-rule="evenodd" d="M17.412 20.2504C17.1996 20.2504 17.027 20.0778 17.027 19.8654L17.0276 14.5451C17.0276 14.0131 16.5944 13.5799 16.0624 13.5799C15.7531 13.5799 15.4598 13.7307 15.2782 13.9842C15.1543 14.1569 14.9137 14.1967 14.741 14.0728C14.5684 13.9489 14.5286 13.7083 14.6525 13.5357C14.9785 13.0813 15.5054 12.8098 16.0618 12.8098C17.0193 12.8098 17.7977 13.5883 17.7977 14.5451L17.7971 19.8654C17.7971 20.0778 17.6245 20.2504 17.412 20.2504Z" fill="#FF717D"/>
<path d="M17.4773 14.5458C17.4773 13.7657 16.8425 13.1301 16.0616 13.1301C15.6092 13.1302 15.1795 13.3514 14.9132 13.7223C14.8926 13.7511 14.8981 13.7919 14.9273 13.8129C14.956 13.8336 14.9969 13.8266 15.0179 13.7973C15.2593 13.4606 15.6502 13.2598 16.0632 13.2598C16.7716 13.2602 17.3476 13.8373 17.3476 14.5458V19.8661C17.3479 19.9013 17.3764 19.9299 17.4116 19.9301C17.4471 19.9301 17.4769 19.9014 17.4773 19.8661V14.5458ZM18.1179 19.8661C18.1175 20.2549 17.8006 20.5708 17.4116 20.5708C17.0229 20.5705 16.7073 20.2548 16.7069 19.8661V14.5458C16.7069 14.1907 16.4181 13.9009 16.0632 13.9004C15.909 13.9004 15.7592 13.9567 15.6429 14.0567L15.5382 14.1708C15.3115 14.4867 14.8703 14.5603 14.5538 14.3333C14.238 14.1065 14.1659 13.6653 14.3929 13.3489C14.7786 12.8115 15.4016 12.4895 16.0616 12.4895C17.1958 12.4895 18.1179 13.4121 18.1179 14.5458V19.8661Z" fill="#FF717D"/>
<path fill-rule="evenodd" clip-rule="evenodd" d="M19.8595 20.2504C19.6465 20.2504 19.4745 20.0778 19.4745 19.8653V15.4314C19.4745 14.8987 19.0413 14.4662 18.5093 14.4662C18.1999 14.4662 17.9066 14.6163 17.7244 14.8685C17.5999 15.0412 17.3592 15.0797 17.1866 14.9558C17.0146 14.8307 16.9754 14.59 17.0999 14.418C17.4266 13.9662 17.9529 13.696 18.5086 13.696C19.4661 13.696 20.2446 14.4745 20.2446 15.4314V19.8653C20.2446 20.0778 20.072 20.2504 19.8595 20.2504Z" fill="#FF717D"/>
<path d="M19.924 15.432C19.924 14.6519 19.2892 14.0164 18.5084 14.0164C18.0562 14.0164 17.6268 14.2366 17.3599 14.6054C17.34 14.6329 17.3443 14.6736 17.374 14.696C17.4038 14.7169 17.4439 14.7101 17.4646 14.682V14.6804C17.7068 14.3455 18.0975 14.146 18.5099 14.146C19.2182 14.1464 19.7943 14.7227 19.7943 15.432V19.8648C19.7943 19.9008 19.8239 19.9304 19.8599 19.9304C19.8954 19.9302 19.924 19.9004 19.924 19.8648V15.432ZM20.5646 19.8648C20.5646 20.2538 20.2489 20.5708 19.8599 20.571C19.4698 20.571 19.1552 20.2536 19.1552 19.8648V15.432C19.1552 15.0764 18.8651 14.787 18.5099 14.7867C18.3039 14.7867 18.1058 14.8862 17.9834 15.0554C17.7552 15.3717 17.3157 15.442 17.0006 15.2164L16.999 15.2148C16.6856 14.9868 16.6123 14.5466 16.8412 14.2304L16.9959 14.0398C17.3828 13.6206 17.9318 13.3758 18.5084 13.3757C19.6425 13.3757 20.5646 14.2983 20.5646 15.432V19.8648Z" fill="#FF717D"/>
<path fill-rule="evenodd" clip-rule="evenodd" d="M22.306 21.0487C22.0936 21.0487 21.921 20.8761 21.921 20.6636V16.6969C21.921 16.1649 21.4884 15.7317 20.9564 15.7317C20.6477 15.7317 20.3544 15.8831 20.1715 16.1366C20.0476 16.3093 19.807 16.3484 19.6343 16.2239C19.4617 16.0994 19.4226 15.8587 19.5471 15.6861C19.8737 15.2324 20.4006 14.9615 20.9557 14.9615C21.9133 14.9615 22.6911 15.74 22.6911 16.6969V20.6636C22.6911 20.8761 22.5191 21.0487 22.306 21.0487Z" fill="#FF717D"/>
<path d="M22.3711 16.6975C22.3711 15.9173 21.7362 15.2819 20.9555 15.2819C20.5043 15.2819 20.074 15.5021 19.807 15.8725V15.874C19.7863 15.9031 19.7918 15.9435 19.8211 15.9647C19.8504 15.9858 19.8912 15.9789 19.9117 15.9506V15.949C20.1538 15.6136 20.5439 15.4115 20.957 15.4115C21.6657 15.4119 22.2414 15.9892 22.2414 16.6975V20.6631C22.2414 20.6986 22.27 20.7285 22.3055 20.7287C22.3414 20.7287 22.3711 20.6992 22.3711 20.6631V16.6975ZM23.0117 20.6631C23.0117 21.0519 22.6956 21.3694 22.3055 21.3694C21.9165 21.3691 21.6008 21.0521 21.6008 20.6631V16.6975C21.6008 16.3422 21.3117 16.0526 20.957 16.0522C20.7534 16.0522 20.5558 16.1518 20.432 16.3225C20.2048 16.6392 19.7635 16.7109 19.4476 16.4834C19.132 16.2558 19.0591 15.8152 19.2867 15.499L19.443 15.3084C19.83 14.8875 20.379 14.6413 20.9555 14.6412C22.0898 14.6412 23.0117 15.564 23.0117 16.6975V20.6631Z" fill="#FF717D"/>
<path fill-rule="evenodd" clip-rule="evenodd" d="M10.9385 23.511C10.8102 23.511 10.6857 23.4474 10.6125 23.3313L8.49469 19.9774C7.9909 19.1803 8.21937 18.1259 9.0004 17.6067C9.30844 17.3186 9.74484 17.1973 10.2056 17.2724C10.7441 17.3609 11.2203 17.7004 11.4481 18.1586L12.6097 20.4921C12.704 20.6821 12.627 20.9137 12.4364 21.0081C12.2458 21.103 12.0148 21.0254 11.9198 20.8348L10.7588 18.5013C10.6407 18.2645 10.3751 18.0803 10.0811 18.0328C9.947 18.0104 9.69414 18.0008 9.51317 18.1817C9.50354 18.1914 9.49263 18.201 9.48172 18.21C9.47017 18.219 9.45862 18.2273 9.44642 18.235C8.99655 18.5193 8.86113 19.1161 9.14543 19.5667L11.2633 22.9199C11.3769 23.1002 11.3229 23.3377 11.1432 23.4513C11.0797 23.4917 11.0085 23.511 10.9385 23.511Z" fill="#FF717D"/>
<path d="M8.80037 17.3553C9.18753 17.0046 9.71867 16.8693 10.2566 16.9569H10.2582C10.8899 17.061 11.4577 17.4591 11.7347 18.0163L12.8957 20.3491C13.0466 20.6529 12.9594 21.0172 12.7004 21.2194L12.5785 21.2944C12.2294 21.468 11.8067 21.3254 11.6332 20.9772L10.4722 18.6444C10.4062 18.5119 10.2364 18.3824 10.0301 18.3491H10.0285C9.9836 18.3416 9.92392 18.3364 9.86756 18.3459C9.81407 18.3551 9.77222 18.3757 9.73944 18.4084C9.72047 18.4274 9.7008 18.4437 9.68475 18.4569L9.6785 18.4631C9.66123 18.4766 9.64068 18.4907 9.61756 18.5053C9.31681 18.6954 9.22611 19.095 9.416 19.3959L11.5332 22.7491H11.5347C11.7423 23.0788 11.6433 23.5146 11.3144 23.7225L11.3129 23.7209C11.1966 23.7946 11.066 23.8303 10.9379 23.8303C10.7044 23.8301 10.475 23.715 10.341 23.5022V23.5006L8.22537 20.1475L8.22381 20.1491C7.63176 19.2123 7.89334 17.9757 8.80037 17.3553ZM10.1535 17.5881C9.77932 17.5273 9.4463 17.6275 9.21912 17.8397L9.20037 17.8584L9.17694 17.8725C8.54032 18.2958 8.35542 19.1573 8.766 19.8069L10.8832 23.16C10.8952 23.1791 10.9152 23.191 10.9379 23.1913C10.9491 23.1913 10.9618 23.1885 10.9722 23.1819V23.1803C11.0024 23.1611 11.0115 23.1221 10.9926 23.0913L8.87537 19.7381C8.4967 19.1381 8.67651 18.3433 9.27537 17.9647C9.27648 17.964 9.27905 17.9613 9.28475 17.9569L9.28631 17.9553C9.57931 17.6623 9.96753 17.6896 10.1301 17.7163H10.1316C10.5132 17.7779 10.8756 18.0173 11.0457 18.3584L12.2066 20.6928C12.2232 20.7251 12.2623 20.7368 12.2941 20.7209L12.3269 20.685C12.3323 20.6694 12.3316 20.6513 12.3238 20.635L11.1613 18.3006C10.9827 17.9418 10.5982 17.6613 10.1535 17.5881Z" fill="#FF717D"/>
<path fill-rule="evenodd" clip-rule="evenodd" d="M13.1084 26.8701C12.9543 26.8701 12.8087 26.7764 12.7496 26.6243C12.3954 25.7123 11.5656 24.6091 11.0162 23.8788C10.8609 23.6722 10.7261 23.4938 10.6235 23.3474C10.5009 23.1742 10.542 22.9335 10.7159 22.8109C10.8898 22.689 11.1305 22.7301 11.253 22.904C11.3487 23.0407 11.4796 23.2146 11.6317 23.4161C12.206 24.1798 13.075 25.3343 13.4671 26.3458C13.5441 26.5441 13.4459 26.7668 13.2476 26.8438C13.2021 26.8617 13.1546 26.8701 13.1084 26.8701Z" fill="#FF717D"/>
<path d="M10.5325 22.5486C10.81 22.3544 11.1809 22.3868 11.42 22.6111L11.5138 22.7189L11.5153 22.7205L11.8872 23.2236C12.4535 23.9766 13.3539 25.1687 13.7653 26.2299C13.9063 26.593 13.7266 27.0014 13.3638 27.1424L13.3622 27.1408C13.2785 27.1735 13.1926 27.1907 13.1091 27.1908C12.8624 27.1908 12.6272 27.0588 12.4997 26.8392L12.4513 26.7408C12.1165 25.8789 11.319 24.8128 10.7606 24.0705L10.3622 23.5314C10.138 23.214 10.2139 22.7732 10.5325 22.5486ZM10.8997 23.0736L10.8981 23.0721C10.8701 23.0927 10.864 23.134 10.8841 23.1627L10.8856 23.1642C10.9844 23.305 11.115 23.4778 11.2716 23.6861C11.8119 24.4044 12.6744 25.546 13.0481 26.508C13.0579 26.5332 13.083 26.5502 13.1091 26.5502C13.1167 26.5501 13.1247 26.548 13.131 26.5455L13.1685 26.5111C13.175 26.496 13.1749 26.4777 13.1685 26.4611C12.7956 25.4996 11.9586 24.3823 11.3763 23.608V23.6096C11.2253 23.4095 11.09 23.2301 10.9903 23.0877V23.0861C10.9696 23.0589 10.9294 23.0528 10.8997 23.0736Z" fill="#FF717D"/>
<path fill-rule="evenodd" clip-rule="evenodd" d="M21.1955 26.8701C21.0909 26.8701 20.987 26.8278 20.9106 26.7443C20.7675 26.5871 20.7784 26.3432 20.9363 26.2001C22.2249 25.0257 22.1049 23.3411 21.9779 21.5582C21.9573 21.2707 21.9361 20.9736 21.9214 20.6822C21.9111 20.4698 22.0748 20.2895 22.2872 20.2792C22.497 20.2683 22.6806 20.4319 22.6909 20.6444C22.705 20.9267 22.7255 21.22 22.7461 21.503C22.8802 23.3911 23.0194 25.3434 21.4548 26.7694C21.381 26.8368 21.288 26.8701 21.1955 26.8701Z" fill="#FF717D"/>
<path d="M22.4117 19.9662C22.7347 20.015 22.9935 20.2867 23.0102 20.6287L23.0648 21.4803L23.1133 22.1881C23.2109 23.8594 23.1547 25.6526 21.6711 27.0053C21.5364 27.1283 21.3653 27.1895 21.1961 27.1896C21.0527 27.1896 20.9095 27.1459 20.7883 27.06L20.6742 26.96C20.4127 26.6726 20.4315 26.2257 20.7211 25.9631L20.9227 25.7615C21.8641 24.7224 21.7804 23.2903 21.6586 21.5818L21.6023 20.699V20.6975C21.5837 20.3089 21.8825 19.9791 22.2711 19.96L22.4117 19.9662ZM22.3023 20.599C22.2668 20.6009 22.24 20.6306 22.2414 20.6662L22.2977 21.535L22.3414 22.1928C22.4346 23.7346 22.3972 25.3017 21.1523 26.4365H21.1508C21.1247 26.4601 21.123 26.5016 21.1477 26.5287H21.1461C21.1597 26.5436 21.1781 26.5506 21.1961 26.5506C21.2111 26.5505 21.2258 26.5445 21.2383 26.5334H21.2398C22.6726 25.2276 22.5636 23.4441 22.4273 21.5256L22.3711 20.66C22.3694 20.6258 22.3381 20.5973 22.3039 20.599H22.3023Z" fill="#FF717D"/>
<path fill-rule="evenodd" clip-rule="evenodd" d="M22.5696 29.5284H11.6878C11.2199 29.5284 10.8387 29.1472 10.8387 28.6787V26.9492C10.8387 26.4813 11.2199 26.1001 11.6878 26.1001H22.5696C23.0374 26.1001 23.4186 26.4813 23.4186 26.9492V28.6787C23.4186 29.1472 23.0374 29.5284 22.5696 29.5284ZM11.6878 26.8702C11.6454 26.8702 11.6088 26.9062 11.6088 26.9492V28.6787C11.6088 28.7217 11.6454 28.7583 11.6878 28.7583H22.5696C22.6125 28.7583 22.6485 28.7217 22.6485 28.6787V26.9492C22.6485 26.9062 22.6125 26.8702 22.5696 26.8702H11.6878Z" fill="#FF717D"/>
<path d="M23.0981 26.9485C23.0978 26.6578 22.8607 26.4206 22.57 26.4204H11.6872C11.3965 26.4207 11.1594 26.6579 11.159 26.9485V28.6782C11.159 28.9699 11.3965 29.2076 11.6872 29.2079H22.57C22.8607 29.2077 23.0981 28.97 23.0981 28.6782V26.9485ZM11.9294 28.4376H22.3278V27.1907H11.9294V28.4376ZM22.9684 28.6782C22.9684 28.8945 22.7928 29.078 22.57 29.0782H11.6872C11.4667 29.0779 11.2887 28.8961 11.2887 28.6782V26.9485C11.2891 26.7276 11.4702 26.5504 11.6872 26.5501H22.57C22.7893 26.5503 22.9681 26.7292 22.9684 26.9485V28.6782ZM23.7387 28.6782C23.7387 29.3231 23.2145 29.8483 22.57 29.8485H11.6872C11.0427 29.8482 10.5184 29.3231 10.5184 28.6782V26.9485C10.5188 26.3044 11.0431 25.7801 11.6872 25.7798H22.57C23.2142 25.78 23.7384 26.3044 23.7387 26.9485V28.6782Z" fill="#FF717D"/>
<path fill-rule="evenodd" clip-rule="evenodd" d="M12.3221 10.7856C12.2797 10.7856 12.2361 10.7786 12.1937 10.7638C10.4917 10.1625 9.34747 8.54522 9.34747 6.73865C9.34747 4.38594 11.2619 2.47156 13.6146 2.47156C15.9673 2.47156 17.8817 4.38594 17.8817 6.73865C17.8817 8.54522 16.738 10.1625 15.0354 10.7638C14.8352 10.8344 14.6151 10.7291 14.5445 10.5289C14.4732 10.328 14.5785 10.1079 14.7794 10.0373C16.1746 9.54445 17.1115 8.2192 17.1115 6.73865C17.1115 4.81079 15.5431 3.24168 13.6146 3.24168C11.6867 3.24168 10.1176 4.81079 10.1176 6.73865C10.1176 8.2192 11.0552 9.54509 12.4504 10.0373C12.6506 10.1079 12.7559 10.328 12.6853 10.5289C12.6295 10.6868 12.4806 10.7856 12.3221 10.7856Z" fill="#FF717D"/>
<path d="M17.5615 6.73874C17.5615 4.5628 15.7906 2.79192 13.6147 2.79187C11.4387 2.79187 9.66779 4.56277 9.66779 6.73874C9.66782 8.40965 10.7266 9.90605 12.3006 10.4622H12.299C12.3069 10.4649 12.3155 10.4653 12.3225 10.4653C12.3497 10.4651 12.3743 10.4473 12.3834 10.4216C12.3949 10.3871 12.3769 10.3503 12.3443 10.3387C10.8211 9.80133 9.79751 8.3548 9.79747 6.73874C9.79747 4.63415 11.5101 2.92156 13.6147 2.92156C15.7199 2.92161 17.4318 4.63422 17.4318 6.73874C17.4318 8.35458 16.4094 9.8005 14.8865 10.3387H14.885C14.8516 10.3506 14.8341 10.3877 14.8459 10.4216V10.4231C14.8578 10.4561 14.8952 10.4738 14.9287 10.4622C16.5033 9.90606 17.5615 8.40971 17.5615 6.73874ZM18.2022 6.73874C18.2021 8.68084 16.9718 10.4188 15.1412 11.0653C14.8203 11.1782 14.4724 11.0449 14.3037 10.7637L14.2428 10.6356C14.1127 10.2683 14.305 9.86523 14.6725 9.73562L14.9053 9.64343C16.0431 9.13741 16.7912 7.99976 16.7912 6.73874C16.7912 4.98761 15.3664 3.56223 13.6147 3.56218C11.8635 3.56218 10.4381 4.98761 10.4381 6.73874C10.4381 8.08372 11.2898 9.28859 12.5568 9.73562L12.6865 9.79656C12.9673 9.96561 13.0993 10.3148 12.9865 10.6356C12.884 10.9253 12.6119 11.1058 12.3225 11.1059C12.2448 11.1059 12.1648 11.0921 12.0881 11.0653H12.0865C10.257 10.4186 9.0272 8.6807 9.02716 6.73874C9.02716 4.2093 11.0852 2.15125 13.6147 2.15125C16.1441 2.1513 18.2022 4.20933 18.2022 6.73874Z" fill="#FF717D"/>
<path fill-rule="evenodd" clip-rule="evenodd" d="M12.6666 8.03305C12.5742 8.03305 12.4854 7.99862 12.4203 7.93837L11.5731 7.1535C11.4372 7.02761 11.4372 6.82319 11.5731 6.69731C11.709 6.57143 11.9296 6.57143 12.0661 6.69731L12.6666 7.25355L14.7554 5.31853C14.8912 5.19265 15.1119 5.19265 15.2484 5.31853C15.3843 5.44441 15.3843 5.64884 15.2484 5.77472L12.9128 7.93837C12.8477 7.99862 12.7589 8.03305 12.6666 8.03305Z" fill="#FF717D"/>
<path d="M14.5384 5.08348C14.7972 4.8441 15.2063 4.84504 15.4649 5.08348C15.7373 5.33601 15.739 5.75757 15.4665 6.01004L13.1305 8.17254C13.0044 8.28939 12.8368 8.35379 12.6665 8.35379C12.4962 8.35377 12.3285 8.28937 12.2024 8.17254L11.3555 7.38817C11.0831 7.13574 11.0833 6.71571 11.3555 6.46317L11.4587 6.38348C11.7141 6.2261 12.0572 6.2527 12.2837 6.4616L12.6665 6.81785L14.5384 5.08348ZM14.9727 5.55379L12.8837 7.48817L12.6665 7.68973L11.8493 6.93192C11.8448 6.92783 11.8346 6.9226 11.8196 6.92254C11.811 6.92254 11.8043 6.92508 11.7993 6.92723L12.6384 7.70379C12.6426 7.70744 12.6526 7.71315 12.6665 7.71317C12.6803 7.71317 12.6903 7.70745 12.6946 7.70379L15.0196 5.5491C15.0149 5.54734 15.0096 5.5445 15.0024 5.54442C14.987 5.54442 14.9767 5.55011 14.9727 5.55379Z" fill="#FF717D"/>
<path fill-rule="evenodd" clip-rule="evenodd" d="M4.19623 19.6078C2.20676 19.6078 0.588226 17.9893 0.588226 15.9998C0.588226 14.0103 2.20676 12.3925 4.19623 12.3925C6.1857 12.3925 7.80423 14.0103 7.80423 15.9998C7.80423 17.9893 6.1857 19.6078 4.19623 19.6078ZM4.19623 13.1619C2.63161 13.1619 1.35834 14.4352 1.35834 15.9998C1.35834 17.5644 2.63161 18.8377 4.19623 18.8377C5.76085 18.8377 7.03411 17.5644 7.03411 15.9998C7.03411 14.4352 5.76085 13.1619 4.19623 13.1619Z" fill="#FF717D"/>
<path d="M7.48354 16.0003C7.48354 14.1876 6.00885 12.7128 4.19604 12.7128C2.38331 12.7129 0.908539 14.1877 0.908539 16.0003C0.908783 17.8127 2.38354 19.2877 4.19604 19.2878C6.00863 19.2878 7.48329 17.8128 7.48354 16.0003ZM6.71479 16.0003C6.71479 14.6124 5.58393 13.4815 4.19604 13.4815C2.80823 13.4816 1.67885 14.6124 1.67885 16.0003C1.6791 17.3879 2.80838 18.5174 4.19604 18.5175C5.58378 18.5175 6.71454 17.388 6.71479 16.0003ZM7.35385 16.0003C7.35361 17.7414 5.93724 19.1581 4.19604 19.1581C2.45492 19.158 1.03847 17.7414 1.03823 16.0003C1.03823 14.259 2.45477 12.8426 4.19604 12.8425C5.93739 12.8425 7.35385 14.2589 7.35385 16.0003ZM8.12416 16.0003C8.12392 18.1663 6.36209 19.9284 4.19604 19.9284C2.03007 19.9283 0.268158 18.1662 0.267914 16.0003C0.267914 13.8341 2.03 12.0722 4.19604 12.0721C6.36217 12.0721 8.12416 13.834 8.12416 16.0003Z" fill="#FF717D"/>
<path fill-rule="evenodd" clip-rule="evenodd" d="M27.8039 19.6078C25.8144 19.6078 24.1959 17.9893 24.1959 15.9998C24.1959 14.0103 25.8144 12.3925 27.8039 12.3925C29.7934 12.3925 31.4119 14.0103 31.4119 15.9998C31.4119 17.9893 29.7934 19.6078 27.8039 19.6078ZM27.8039 13.1619C26.2393 13.1619 24.966 14.4352 24.966 15.9998C24.966 17.5644 26.2393 18.8377 27.8039 18.8377C29.3685 18.8377 30.6418 17.5644 30.6418 15.9998C30.6418 14.4352 29.3685 13.1619 27.8039 13.1619Z" fill="#FF717D"/>
<path d="M31.0912 16.0003C31.0912 14.1876 29.6165 12.7128 27.8037 12.7128C25.991 12.7129 24.5162 14.1877 24.5162 16.0003C24.5164 17.8127 25.9912 19.2877 27.8037 19.2878C29.6163 19.2878 31.091 17.8128 31.0912 16.0003ZM30.3225 16.0003C30.3225 14.6124 29.1916 13.4815 27.8037 13.4815C26.4159 13.4816 25.2865 14.6124 25.2865 16.0003C25.2868 17.3879 26.416 18.5174 27.8037 18.5175C29.1914 18.5175 30.3222 17.388 30.3225 16.0003ZM30.9615 16.0003C30.9613 17.7414 29.5449 19.1581 27.8037 19.1581C26.0626 19.158 24.6461 17.7414 24.6459 16.0003C24.6459 14.259 26.0624 12.8426 27.8037 12.8425C29.5451 12.8425 30.9615 14.2589 30.9615 16.0003ZM31.7318 16.0003C31.7316 18.1663 29.9698 19.9284 27.8037 19.9284C25.6377 19.9283 23.8758 18.1662 23.8756 16.0003C23.8756 13.8341 25.6377 12.0722 27.8037 12.0721C29.9698 12.0721 31.7318 13.834 31.7318 16.0003Z" fill="#FF717D"/>
</svg>
