<svg width="16" height="16" viewBox="0 0 16 16" fill="none" xmlns="http://www.w3.org/2000/svg">
<g clip-path="url(#clip0_4232_54138)">
<path d="M3.25 15.75C3.80228 15.75 4.25 15.3023 4.25 14.75C4.25 14.1977 3.80228 13.75 3.25 13.75C2.69772 13.75 2.25 14.1977 2.25 14.75C2.25 15.3023 2.69772 15.75 3.25 15.75Z" fill="black"/>
<path d="M5.25 13.75C5.80228 13.75 6.25 13.3023 6.25 12.75C6.25 12.1977 5.80228 11.75 5.25 11.75C4.69772 11.75 4.25 12.1977 4.25 12.75C4.25 13.3023 4.69772 13.75 5.25 13.75Z" fill="black"/>
<path d="M1.25 13.75C1.80228 13.75 2.25 13.3023 2.25 12.75C2.25 12.1977 1.80228 11.75 1.25 11.75C0.697715 11.75 0.25 12.1977 0.25 12.75C0.25 13.3023 0.697715 13.75 1.25 13.75Z" fill="black"/>
<path d="M3.25 11.75C3.80228 11.75 4.25 11.3023 4.25 10.75C4.25 10.1977 3.80228 9.75 3.25 9.75C2.69772 9.75 2.25 10.1977 2.25 10.75C2.25 11.3023 2.69772 11.75 3.25 11.75Z" fill="black"/>
<path d="M15.2499 2.5H13.4999L11.4999 4.5M11.4999 4.5L10.1192 12.5819C10.1041 12.6724 10.0643 12.757 10.0042 12.8264C9.94414 12.8958 9.86614 12.9473 9.77874 12.9753C9.69135 13.0033 9.59793 13.0067 9.50872 12.9852C9.41951 12.9636 9.33796 12.9179 9.27299 12.8531L3.14799 6.72813C3.08317 6.66315 3.03748 6.5816 3.01593 6.49239C2.99438 6.40318 2.9978 6.30976 3.02581 6.22237C3.05383 6.13497 3.10535 6.05697 3.17475 5.99692C3.24414 5.93686 3.32873 5.89706 3.41924 5.88188L11.4999 4.5Z" stroke="black" stroke-width="1.2" stroke-linecap="round" stroke-linejoin="round"/>
</g>
<defs>
<clipPath id="clip0_4232_54138">
<rect width="16" height="16" fill="white"/>
</clipPath>
</defs>
</svg>
