<svg width="16" height="16" viewBox="0 0 16 16" fill="none" xmlns="http://www.w3.org/2000/svg">
<g clip-path="url(#clip0_4232_59240)">
<path d="M6.32625 3.25C6.63738 2.93672 7.05854 2.75731 7.5 2.75C7.89782 2.75 8.27936 2.90804 8.56066 3.18934C8.84196 3.47064 9 3.85218 9 4.25C9 4.64782 8.84196 5.02936 8.56066 5.31066C8.27936 5.59196 7.89782 5.75 7.5 5.75H1.5" stroke="black" stroke-width="1.2" stroke-linecap="round" stroke-linejoin="round"/>
<path d="M11.8263 5.5C12.1374 5.18672 12.5585 5.00731 13 5C13.3978 5 13.7794 5.15804 14.0607 5.43934C14.342 5.72064 14.5 6.10218 14.5 6.5C14.5 6.89782 14.342 7.27936 14.0607 7.56066C13.7794 7.84196 13.3978 8 13 8H2" stroke="black" stroke-width="1.2" stroke-linecap="round" stroke-linejoin="round"/>
<path d="M8.32625 12.75C8.63738 13.0633 9.05854 13.2427 9.5 13.25C9.89782 13.25 10.2794 13.092 10.5607 12.8107C10.842 12.5294 11 12.1478 11 11.75C11 11.3522 10.842 10.9706 10.5607 10.6893C10.2794 10.408 9.89782 10.25 9.5 10.25H2.5" stroke="black" stroke-width="1.2" stroke-linecap="round" stroke-linejoin="round"/>
</g>
<defs>
<clipPath id="clip0_4232_59240">
<rect width="16" height="16" fill="white"/>
</clipPath>
</defs>
</svg>
