<svg width="16" height="16" viewBox="0 0 16 16" fill="none" xmlns="http://www.w3.org/2000/svg">
<g clip-path="url(#clip0_4232_64499)">
<path d="M12 12.5V14" stroke="black" stroke-width="1.2" stroke-linecap="round" stroke-linejoin="round"/>
<path d="M4 12.5V14" stroke="black" stroke-width="1.2" stroke-linecap="round" stroke-linejoin="round"/>
<path d="M13.5 3H2.5C2.22386 3 2 3.22386 2 3.5V12C2 12.2761 2.22386 12.5 2.5 12.5H13.5C13.7761 12.5 14 12.2761 14 12V3.5C14 3.22386 13.7761 3 13.5 3Z" stroke="black" stroke-width="1.2" stroke-linecap="round" stroke-linejoin="round"/>
<path d="M11.25 7.75H14" stroke="black" stroke-width="1.2" stroke-linecap="round" stroke-linejoin="round"/>
<path d="M9.25 9.75C10.3546 9.75 11.25 8.85457 11.25 7.75C11.25 6.64543 10.3546 5.75 9.25 5.75C8.14543 5.75 7.25 6.64543 7.25 7.75C7.25 8.85457 8.14543 9.75 9.25 9.75Z" stroke="black" stroke-width="1.2" stroke-linecap="round" stroke-linejoin="round"/>
</g>
<defs>
<clipPath id="clip0_4232_64499">
<rect width="16" height="16" fill="white"/>
</clipPath>
</defs>
</svg>
