<svg width="44" height="44" viewBox="0 0 44 44" fill="none" xmlns="http://www.w3.org/2000/svg">
<g clip-path="url(#clip0_5430_358849)">
<mask id="mask0_5430_358849" style="mask-type:luminance" maskUnits="userSpaceOnUse" x="0" y="0" width="44" height="44">
<path d="M43.846 0H0.0959473V43.7501H43.846V0Z" fill="white"/>
</mask>
<g mask="url(#mask0_5430_358849)">
<path d="M21.8786 43.7422H22.053C30.7396 43.7422 35.7816 42.8677 39.3531 39.4003C42.9947 35.7223 43.8357 30.6461 43.8357 21.9935V21.7488C43.8357 13.0987 42.9947 8.05656 39.3531 4.34194C35.7842 0.874637 30.7057 0 22.0556 0H21.8812C13.1947 0 8.14989 0.874637 4.57847 4.34194C0.936745 8.02011 0.0959473 13.0987 0.0959473 21.7488V21.9935C0.0959473 30.6435 0.936745 35.6858 4.57847 39.4003C8.11607 42.8677 13.1947 43.7422 21.8786 43.7422Z" fill="#202022"/>
<path d="M38.6286 21.5393C38.6286 21.3728 38.4932 21.2348 38.3266 21.227C32.3481 21.0005 28.7096 20.238 26.1641 17.6925C23.6133 15.1418 22.8533 11.5006 22.6269 5.50906C22.6217 5.34249 22.4837 5.20715 22.3146 5.20715H21.6171C21.4505 5.20715 21.3125 5.34249 21.3047 5.50906C21.0783 11.498 20.3183 15.1418 17.7676 17.6925C15.2195 20.2406 11.5835 21.0005 5.60501 21.227C5.43843 21.2322 5.3031 21.3701 5.3031 21.5393V22.2369C5.3031 22.4034 5.43843 22.5414 5.60501 22.5492C11.5835 22.7756 15.2221 23.5382 17.7676 26.0837C20.3131 28.6292 21.0731 32.2601 21.3021 38.228C21.3073 38.3946 21.4453 38.53 21.6144 38.53H22.3146C22.4811 38.53 22.6191 38.3946 22.6269 38.228C22.8559 32.2601 23.616 28.6292 26.1615 26.0837C28.7096 23.5356 32.3455 22.7756 38.324 22.5492C38.4906 22.544 38.626 22.406 38.626 22.2369V21.5393H38.6286Z" fill="white"/>
</g>
</g>
<defs>
<clipPath id="clip0_5430_358849">
<rect width="44" height="44" fill="white"/>
</clipPath>
</defs>
</svg>
