<svg width="32" height="32" viewBox="0 0 32 32" fill="none" xmlns="http://www.w3.org/2000/svg">
<g clip-path="url(#clip0_7149_57451)">
<path d="M17.6364 17.4777C17.6363 16.9541 17.4426 16.4562 17.0661 16.0402C16.7401 15.7666 16.4179 15.569 16.0958 15.4746H16.0911L11.5755 14.1293V10.9027H13.1755V12.9355L16.5442 13.9386C17.173 14.1228 17.7056 14.4803 18.138 14.8496L18.1723 14.8793L18.202 14.9105C18.8633 15.6149 19.2363 16.5129 19.2364 17.4777V18.2293H17.6364V17.4777Z" fill="#FF717D"/>
<path d="M0.800003 24.1938V19.7297L0.806253 19.6813L1.19063 16.5813C1.32549 15.471 2.12184 14.5017 3.24688 14.175L7.39063 12.936V11.3266C6.82882 10.7138 6.4359 9.94811 6.26094 9.12815L6.2125 8.94065L6.20782 8.9219L6.20469 8.90315C6.13768 8.57601 6.13907 8.25971 6.13907 8.03752V6.44065C6.13913 4.19618 8.00776 2.40002 10.2594 2.40002C12.5153 2.40029 14.3664 4.19596 14.4266 6.41877V8.0844C14.4266 8.30659 14.4295 8.62289 14.3625 8.95002L14.3531 8.98752L14.3047 9.17502C14.1273 10.0065 13.7276 10.7846 13.1531 11.4016C12.5777 12.0193 11.8349 12.4657 11.0344 12.6953C10.5851 12.8414 10.0758 12.8431 9.62657 12.6969L9.87344 11.936L10.1219 11.175C10.2496 11.2165 10.413 11.2166 10.5406 11.175L10.5563 11.1703L10.5734 11.1656C11.1073 11.0167 11.6039 10.7179 11.9828 10.311C12.3616 9.90413 12.6314 9.38036 12.7469 8.81721L12.75 8.7969L12.7547 8.77815L12.7938 8.62502C12.8223 8.48341 12.8266 8.32997 12.8266 8.0844V6.46252L12.8078 6.21252C12.6484 4.98081 11.5713 4.00028 10.2594 4.00002C8.85511 4.00002 7.73913 5.11571 7.73907 6.44065V8.03752C7.73907 8.28295 7.7418 8.43661 7.77032 8.57815L7.81094 8.73127L7.82032 8.76877C7.93426 9.32503 8.19733 9.84373 8.56875 10.2485L8.75 10.4235L8.99063 10.6594V14.1281L8.41875 14.3L3.70469 15.7078L3.69688 15.711C3.19181 15.856 2.83801 16.2924 2.77969 16.775L2.77813 16.7781L2.4 19.8266V24.1938C2.4 24.6733 2.84135 25.1327 3.37969 25.1328H11.6063V26.7328H3.37969C1.994 26.7327 0.800003 25.5928 0.800003 24.1938Z" fill="#FF717D"/>
<path d="M5.7674 25.6504V29.502H4.1674V25.6504H5.7674Z" fill="#FF717D"/>
<path d="M13.223 21.8849L12.6636 22.4568L12.1058 23.0287L9.69955 20.6802L10.8183 19.5365L13.223 21.8849Z" fill="#FF717D"/>
<path d="M5.7674 19.1688V22.1266H12.5674V23.7266H4.1674V19.1688H5.7674Z" fill="#FF717D"/>
<path d="M21.1609 25.8837V27.8696L21.0219 28.0743L19.8219 29.8321H16.1937V27.0165L16.3656 26.7993L16.8469 26.1884L17.0859 25.8837H21.1609ZM17.7937 27.5712V28.2321H18.9765L19.4875 27.4837H17.8625L17.7937 27.5712Z" fill="#FF717D"/>
<path d="M21.6677 18.8386L21.8911 19.2746L21.9864 19.4621L22.1348 19.7511L22.0395 20.0605L19.9708 26.823L19.2067 26.5902L18.4411 26.3558L20.2505 20.4386H14.2177L11.8395 28.2324H15.5505V29.8324H10.5583L10.3255 29.6042L10.2286 29.5105L9.88016 29.1699L12.8614 19.4058L13.0333 18.8386H21.6677Z" fill="#FF717D"/>
<path d="M21.4501 10.9027V14.123L20.886 14.2965L16.9407 15.5183L16.4688 13.9902L19.8501 12.9418V10.9027H21.4501Z" fill="#FF717D"/>
<path d="M24.0345 10.6594L24.4532 10.2485C24.8253 9.84352 25.0907 9.32567 25.2048 8.76877L25.2141 8.73127L25.2532 8.57815C25.2818 8.43654 25.2845 8.28308 25.2845 8.03752V6.44065C25.2844 5.11571 24.17 4.00002 22.7657 4.00002C21.3661 4.0001 20.2348 5.11623 20.1985 6.46252V8.0844C20.1985 8.32359 20.2017 8.4755 20.2282 8.61409L20.2704 8.77815L20.2751 8.7969L20.2782 8.81721C20.3937 9.38033 20.6635 9.90415 21.0423 10.311C21.3739 10.667 21.7954 10.9406 22.2532 11.1031L22.4516 11.1656L22.4688 11.1703L22.4845 11.175C22.6122 11.2166 22.7755 11.2166 22.9032 11.175L23.1501 11.936L23.3985 12.6969C22.949 12.8432 22.4386 12.8432 21.9891 12.6969C21.1891 12.4672 20.447 12.019 19.872 11.4016C19.2975 10.7846 18.8978 10.0064 18.7204 9.17502L18.672 8.98752L18.6626 8.95002C18.5956 8.62289 18.5985 8.30658 18.5985 8.0844V6.41877L18.6313 6.00784C18.8923 3.97871 20.6505 2.4001 22.7657 2.40002C25.0173 2.40002 26.8844 4.19618 26.8845 6.44065V8.03752C26.8845 8.25972 26.8874 8.57602 26.8204 8.90315L26.8173 8.9219L26.8126 8.94065L26.7641 9.12815L26.7626 9.12659C26.5878 9.94694 26.1965 10.7135 25.6345 11.3266V12.936L29.7782 14.175C30.8882 14.4967 31.6962 15.4081 31.8329 16.5813L32.2188 19.6813L32.2251 19.7297V29.5016H30.6251V19.8266L30.2454 16.7781V16.7703C30.1872 16.2592 29.8474 15.8602 29.3282 15.711L29.3188 15.7078L24.6048 14.3L24.0345 14.1281V10.6594Z" fill="#FF717D"/>
<path d="M28.8574 19.1688V29.5016H27.2574V19.1688H28.8574Z" fill="#FF717D"/>
</g>
<defs>
<clipPath id="clip0_7149_57451">
<rect width="32" height="32" fill="white"/>
</clipPath>
</defs>
</svg>
