<svg width="24" height="24" viewBox="0 0 24 24" fill="none" xmlns="http://www.w3.org/2000/svg">
<g clip-path="url(#clip0_1915_231254)">
<path d="M9.75 10.6C11.4621 10.6 12.85 9.21208 12.85 7.5C12.85 5.78792 11.4621 4.4 9.75 4.4C8.03792 4.4 6.65 5.78792 6.65 7.5C6.65 9.21208 8.03792 10.6 9.75 10.6Z" stroke="black" stroke-width="1.7" stroke-linecap="round" stroke-linejoin="round"/>
<path d="M15.75 19.6C17.4621 19.6 18.85 18.2121 18.85 16.5C18.85 14.7879 17.4621 13.4 15.75 13.4C14.0379 13.4 12.65 14.7879 12.65 16.5C12.65 18.2121 14.0379 19.6 15.75 19.6Z" stroke="black" stroke-width="1.7" stroke-linecap="round" stroke-linejoin="round"/>
<path d="M13 7.5H21.25" stroke="black" stroke-width="1.7" stroke-linecap="round" stroke-linejoin="round"/>
<path d="M2.75 7.5H6.5" stroke="black" stroke-width="2" stroke-linecap="round" stroke-linejoin="round"/>
<path d="M19 16.5H21.25" stroke="black" stroke-width="2" stroke-linecap="round" stroke-linejoin="round"/>
<path d="M2.75 16.5H12.5" stroke="black" stroke-width="1.7" stroke-linecap="round" stroke-linejoin="round"/>
</g>
<defs>
<clipPath id="clip0_1915_231254">
<rect width="24" height="24" fill="white"/>
</clipPath>
</defs>
</svg>
