<svg width="18" height="22" viewBox="0 0 18 22" fill="none" xmlns="http://www.w3.org/2000/svg">
<path d="M0.482117 15.0277C0.482117 19.106 3.81683 21.989 8.51783 21.989C13.8514 21.989 17.5178 18.5433 17.5178 12.8784C17.5178 4.03913 9.76326 0.0109863 4.10826 0.0109863C3.21426 0.0109863 2.7724 0.453272 2.7724 0.965415C2.7724 1.37684 2.99312 1.71884 3.32483 2.19113C4.1284 3.29556 5.49426 4.9027 5.49426 6.9217C5.49426 7.0927 5.4844 7.26327 5.46426 7.44456C4.90197 6.38942 3.90726 5.64627 2.70212 5.64627C2.36055 5.64627 2.17969 5.84727 2.17969 6.13827C2.17969 6.4897 2.25983 6.74127 2.25983 7.83584C2.25983 9.93542 0.482117 11.3514 0.482117 15.0277ZM8.71883 19.1664C6.70969 19.1664 5.37383 17.951 5.37383 16.1428C5.37383 14.2443 6.71955 13.5714 6.90083 12.3457C6.91069 12.2454 6.98097 12.2154 7.05126 12.2857C7.55355 12.7177 7.86512 13.2598 8.10597 13.883C8.15612 13.9931 8.23669 14.003 8.28683 13.913C8.83926 12.9487 8.93955 11.5121 8.80926 9.70442C8.78912 9.6037 8.8594 9.55356 8.94983 9.59384C11.3305 10.6786 12.5455 13.0391 12.5455 15.1584C12.5455 17.288 11.2903 19.1664 8.71883 19.1664Z" fill="#FF717D"/>
</svg>
