<svg width="32" height="32" viewBox="0 0 32 32" fill="none" xmlns="http://www.w3.org/2000/svg">
<path d="M12.1589 28.4726C12.64 28.9534 13.2715 29.194 13.903 29.194C14.5348 29.194 15.1663 28.9534 15.6471 28.4726L28.473 15.6471C29.0023 15.1172 29.2604 14.3864 29.181 13.6419L28.3506 5.84081C28.2285 4.69334 27.3066 3.77147 26.1592 3.64941L18.3581 2.81897C17.6139 2.73857 16.8828 2.99737 16.3529 3.52731L3.52734 16.3528C2.56574 17.3144 2.56574 18.8792 3.52734 19.8411L12.1589 28.4726ZM4.47007 17.2955L17.2956 4.47034C17.5391 4.22684 17.8744 4.10707 18.2168 4.14481L26.0179 4.97487C26.5453 5.03117 26.9688 5.45471 27.0251 5.98204L27.8555 13.7831C27.8916 14.1253 27.7731 14.4609 27.53 14.7044L14.7044 27.5299C14.2624 27.9713 13.5436 27.9713 13.1016 27.5299L4.47007 18.8984C4.02834 18.4563 4.02834 17.7373 4.47007 17.2955Z" fill="#FF717D"/>
<path d="M23.2698 7.09436C23.7077 7.09436 24.1174 7.26425 24.427 7.57385C24.736 7.88304 24.9055 8.2922 24.9055 8.7301C24.9055 9.16823 24.7367 9.5779 24.427 9.88733H24.426C24.1076 10.2055 23.6898 10.3649 23.2698 10.3649C22.8495 10.3648 22.4313 10.2056 22.1125 9.88733H22.1135C21.4759 9.24922 21.4757 8.21086 22.1125 7.57385H22.1135C22.4228 7.26424 22.8316 7.09439 23.2698 7.09436ZM23.2698 7.42737C22.9229 7.42739 22.5944 7.56369 22.3489 7.8092C21.8407 8.31737 21.8408 9.1427 22.3489 9.651C22.8567 10.1594 23.6825 10.1586 24.1907 9.65198V9.651C24.4362 9.40542 24.5725 9.07699 24.5725 8.7301C24.5725 8.42685 24.4683 8.13702 24.2776 7.90491L24.1907 7.8092C23.9451 7.56335 23.6162 7.42737 23.2698 7.42737Z" fill="#FF717D" stroke="#FF717D"/>
<path d="M17.8198 11.9894C17.8849 11.9243 17.99 11.9244 18.0551 11.9894L19.9448 13.8781C21.0508 14.9846 21.0508 16.786 19.9448 17.8917C19.392 18.4445 18.6659 18.7207 17.938 18.7208C17.2101 18.7208 16.484 18.4444 15.9311 17.8917L14.1596 16.1202L13.8061 16.4738L13.1284 17.1525L12.7749 17.506L13.1284 17.8595L14.0307 18.7609C14.0958 18.826 14.0958 18.9321 14.0307 18.9972C13.998 19.03 13.9558 19.046 13.9126 19.046C13.8693 19.046 13.8271 19.0299 13.7944 18.9972L12.5385 17.7413L10.2827 19.9972C10.25 20.0299 10.2086 20.0459 10.1655 20.046C10.1222 20.046 10.0799 20.0298 10.0473 19.9972C9.98233 19.932 9.98225 19.8269 10.0473 19.7618L12.3032 17.506L11.0473 16.2501C10.9824 16.1851 10.9826 16.0799 11.0473 16.0148C11.1125 15.9496 11.2185 15.9496 11.2837 16.0148L12.186 16.9161L12.5395 17.2697L17.8198 11.9894ZM14.395 15.8849L14.7485 16.2384L16.1665 17.6554C16.6388 18.1277 17.2699 18.3898 17.938 18.3898C18.6059 18.3897 19.2363 18.1276 19.7085 17.6554C20.6849 16.6786 20.6849 15.0902 19.7085 14.1134L18.2915 12.6964L17.937 12.3429L14.395 15.8849Z" fill="#FF717D" stroke="#FF717D"/>
</svg>
