<svg width="20" height="20" viewBox="0 0 20 20" fill="none" xmlns="http://www.w3.org/2000/svg">
<g clip-path="url(#clip0_4010_220318)">
<path d="M18.9287 18.9285L15.0401 15.0385M9.25438 17.4385C10.3382 17.4529 11.414 17.2518 12.4194 16.8469C13.4249 16.4421 14.3399 15.8416 15.1113 15.0802C15.8828 14.3189 16.4953 13.4119 16.9134 12.4119C17.3315 11.4119 17.5468 10.3388 17.5468 9.25496C17.5468 8.17109 17.3315 7.09801 16.9134 6.09802C16.4953 5.09802 15.8828 4.19103 15.1113 3.4297C14.3399 2.66836 13.4249 2.06785 12.4194 1.66301C11.414 1.25817 10.3382 1.05707 9.25438 1.07139C7.10269 1.09982 5.04877 1.97453 3.53724 3.50616C2.02572 5.03778 1.17822 7.10309 1.17822 9.25496C1.17822 11.4068 2.02572 13.4721 3.53724 15.0038C5.04877 16.5354 7.10269 17.4101 9.25438 17.4385Z" stroke="black" stroke-width="1.5" stroke-linecap="round" stroke-linejoin="round"/>
<path d="M8.09433 4.6571C7.90489 4.6571 7.72321 4.73236 7.58926 4.86631C7.4553 5.00027 7.38005 5.18195 7.38005 5.37139V7.37996H5.37005C5.18061 7.37996 4.99893 7.45522 4.86497 7.58917C4.73102 7.72313 4.65576 7.90481 4.65576 8.09425V10.4157C4.65576 10.6051 4.73102 10.7868 4.86497 10.9208C4.99893 11.0547 5.18061 11.13 5.37005 11.13H7.38005V13.14C7.38005 13.3294 7.4553 13.5111 7.58926 13.645C7.72321 13.779 7.90489 13.8542 8.09433 13.8542H10.4143C10.6038 13.8542 10.7855 13.779 10.9194 13.645C11.0534 13.5111 11.1286 13.3294 11.1286 13.14V11.1285H13.1372C13.3266 11.1285 13.5083 11.0533 13.6423 10.9193C13.7762 10.7854 13.8515 10.6037 13.8515 10.4142V8.09425C13.8515 7.90481 13.7762 7.72313 13.6423 7.58917C13.5083 7.45522 13.3266 7.37996 13.1372 7.37996H11.13V5.37139C11.13 5.18195 11.0548 5.00027 10.9208 4.86631C10.7869 4.73236 10.6052 4.6571 10.4158 4.6571H8.09433Z" stroke="black" stroke-width="1.5" stroke-linecap="round" stroke-linejoin="round"/>
</g>
<defs>
<clipPath id="clip0_4010_220318">
<rect width="20" height="20" fill="white"/>
</clipPath>
</defs>
</svg>
