<svg width="20" height="20" viewBox="0 0 20 20" fill="none" xmlns="http://www.w3.org/2000/svg">
<g clip-path="url(#clip0_4010_217947)">
<path d="M16.875 3.75007C16.8751 3.64844 16.8505 3.54831 16.8032 3.45836C16.7559 3.36841 16.6873 3.29136 16.6035 3.23387C16.5197 3.17638 16.4232 3.1402 16.3222 3.12845C16.2213 3.11671 16.119 3.12976 16.0242 3.16647C14.8438 3.62585 12.5695 4.35241 10 4.35241C7.43047 4.35241 5.15625 3.62585 3.97578 3.16804C3.88114 3.13137 3.77899 3.11831 3.67817 3.12997C3.57734 3.14164 3.48088 3.17768 3.39711 3.23499C3.31334 3.2923 3.24478 3.36915 3.19737 3.45889C3.14996 3.54863 3.12512 3.64857 3.125 3.75007V8.1071C3.125 13.6407 6.20313 18.1251 10 18.1251C13.7969 18.1251 16.875 13.6407 16.875 8.10866V3.75007Z" stroke="black" stroke-width="1.5" stroke-linecap="round" stroke-linejoin="round"/>
<path d="M11.25 10C11.593 9.61641 12.257 9.375 12.8125 9.375C13.368 9.375 14.032 9.61641 14.375 10" stroke="black" stroke-width="1.5" stroke-linecap="round" stroke-linejoin="round"/>
<path d="M5.625 10C5.96797 9.61641 6.63203 9.375 7.1875 9.375C7.74297 9.375 8.40703 9.61641 8.75 10" stroke="black" stroke-width="1.5" stroke-linecap="round" stroke-linejoin="round"/>
<path d="M12.6842 13.125C12.355 13.5165 11.9441 13.8313 11.4804 14.0473C11.0167 14.2633 10.5113 14.3752 9.9998 14.3752C9.48826 14.3752 8.98291 14.2633 8.5192 14.0473C8.05548 13.8313 7.64462 13.5165 7.31543 13.125" stroke="black" stroke-width="1.5" stroke-linecap="round" stroke-linejoin="round"/>
</g>
<defs>
<clipPath id="clip0_4010_217947">
<rect width="20" height="20" fill="white"/>
</clipPath>
</defs>
</svg>
