<svg width="20" height="20" viewBox="0 0 20 20" fill="none" xmlns="http://www.w3.org/2000/svg">
<g clip-path="url(#clip0_4010_269893)">
<path d="M9.6875 7.8125C10.3779 7.8125 10.9375 7.25286 10.9375 6.5625C10.9375 5.87214 10.3779 5.3125 9.6875 5.3125C8.99714 5.3125 8.4375 5.87214 8.4375 6.5625C8.4375 7.25286 8.99714 7.8125 9.6875 7.8125Z" fill="black"/>
<path d="M10 17.5C14.1421 17.5 17.5 14.1421 17.5 10C17.5 5.85786 14.1421 2.5 10 2.5C5.85786 2.5 2.5 5.85786 2.5 10C2.5 14.1421 5.85786 17.5 10 17.5Z" stroke="black" stroke-width="1.5" stroke-linecap="round" stroke-linejoin="round"/>
<path d="M9.375 9.6875C9.54076 9.6875 9.69973 9.75335 9.81694 9.87056C9.93415 9.98777 10 10.1467 10 10.3125V13.125C10 13.2908 10.0658 13.4497 10.1831 13.5669C10.3003 13.6842 10.4592 13.75 10.625 13.75" stroke="black" stroke-width="1.5" stroke-linecap="round" stroke-linejoin="round"/>
</g>
<defs>
<clipPath id="clip0_4010_269893">
<rect width="20" height="20" fill="white"/>
</clipPath>
</defs>
</svg>
