<svg width="20" height="20" viewBox="0 0 20 20" fill="none" xmlns="http://www.w3.org/2000/svg">
<g clip-path="url(#clip0_4010_202582)">
<path d="M10.0001 8.12507C9.99344 6.81143 10.4925 5.5456 11.3938 4.58992C11.8242 4.1278 12.3451 3.75927 12.9242 3.50728C13.5032 3.25529 14.1279 3.12524 14.7594 3.12524C15.3909 3.12524 16.0157 3.25529 16.5947 3.50728C17.1737 3.75927 17.6947 4.1278 18.1251 4.58992L10.0001 8.12507Z" stroke="black" stroke-width="1.5" stroke-linecap="round" stroke-linejoin="round"/>
<path d="M10 8.16556C11.1481 7.50702 12.5097 7.32849 13.7888 7.66881C15.0678 8.00912 16.1607 8.84074 16.8297 9.98275C17.1584 10.5463 17.3718 11.1695 17.4575 11.8162C17.5432 12.4629 17.4995 13.1203 17.3289 13.7499L10 8.16556Z" stroke="black" stroke-width="1.5" stroke-linecap="round" stroke-linejoin="round"/>
<path d="M10 8.12507C10.0066 6.81143 9.50757 5.5456 8.60625 4.58992C8.17586 4.1278 7.65492 3.75927 7.07588 3.50728C6.49685 3.25529 5.87212 3.12524 5.24063 3.12524C4.60913 3.12524 3.9844 3.25529 3.40537 3.50728C2.82633 3.75927 2.30539 4.1278 1.875 4.58992L10 8.12507Z" stroke="black" stroke-width="1.5" stroke-linecap="round" stroke-linejoin="round"/>
<path d="M10.0002 8.16556C8.85212 7.50702 7.49045 7.32849 6.21142 7.66881C4.93239 8.00912 3.83949 8.84074 3.1705 9.98275C2.84178 10.5463 2.62836 11.1695 2.54266 11.8162C2.45695 12.4629 2.50068 13.1203 2.67128 13.7499L10.0002 8.16556Z" stroke="black" stroke-width="1.5" stroke-linecap="round" stroke-linejoin="round"/>
<path d="M10 8.16553V17.4999" stroke="black" stroke-width="1.5" stroke-linecap="round" stroke-linejoin="round"/>
</g>
<defs>
<clipPath id="clip0_4010_202582">
<rect width="20" height="20" fill="white"/>
</clipPath>
</defs>
</svg>
