<svg width="20" height="20" viewBox="0 0 20 20" fill="none" xmlns="http://www.w3.org/2000/svg">
<g clip-path="url(#clip0_4010_202104)">
<path d="M3.16341 16.0561L7.26576 4.77644C7.30064 4.68008 7.35929 4.59408 7.43628 4.52643C7.51326 4.45878 7.60608 4.41167 7.70613 4.38946C7.80618 4.36725 7.91022 4.37067 8.0086 4.3994C8.10697 4.42812 8.1965 4.48123 8.26888 4.55378L15.447 11.7319C15.5194 11.8044 15.5723 11.8939 15.6008 11.9922C15.6294 12.0905 15.6327 12.1945 15.6104 12.2944C15.5882 12.3944 15.541 12.4871 15.4734 12.5639C15.4058 12.6408 15.3198 12.6994 15.2236 12.7343L3.94388 16.8366C3.83495 16.8764 3.71692 16.8842 3.60368 16.8592C3.49045 16.8342 3.38672 16.7773 3.30472 16.6953C3.22271 16.6133 3.16585 16.5096 3.14081 16.3963C3.11578 16.2831 3.12362 16.1651 3.16341 16.0561Z" stroke="black" stroke-width="1.5" stroke-linecap="round" stroke-linejoin="round"/>
<path d="M13.125 5.625C13.125 5.625 13.125 3.75 15 3.75C16.875 3.75 16.875 1.875 16.875 1.875" stroke="black" stroke-width="1.5" stroke-linecap="round" stroke-linejoin="round"/>
<path d="M11.25 1.25V3.125" stroke="black" stroke-width="1.5" stroke-linecap="round" stroke-linejoin="round"/>
<path d="M16.875 8.75L18.125 10" stroke="black" stroke-width="1.5" stroke-linecap="round" stroke-linejoin="round"/>
<path d="M16.875 6.25L18.75 5.625" stroke="black" stroke-width="1.5" stroke-linecap="round" stroke-linejoin="round"/>
<path d="M6.10059 7.97583L12.024 13.8993" stroke="black" stroke-width="1.5" stroke-linecap="round" stroke-linejoin="round"/>
<path d="M7.89902 15.3993L4.60059 12.1008" stroke="black" stroke-width="1.5" stroke-linecap="round" stroke-linejoin="round"/>
</g>
<defs>
<clipPath id="clip0_4010_202104">
<rect width="20" height="20" fill="white"/>
</clipPath>
</defs>
</svg>
