<svg width="20" height="20" viewBox="0 0 20 20" fill="none" xmlns="http://www.w3.org/2000/svg">
<g clip-path="url(#clip0_4010_202647)">
<path d="M10 15.625C10 15.625 13.125 13.9063 13.125 9.31094C13.125 5.71719 11.207 3.87813 10.3758 3.25156C10.2675 3.17005 10.1356 3.12598 10 3.12598C9.86443 3.12598 9.73254 3.17005 9.62422 3.25156C8.79297 3.87813 6.875 5.71406 6.875 9.31094C6.875 13.9063 10 15.625 10 15.625Z" stroke="black" stroke-width="1.5" stroke-linecap="round" stroke-linejoin="round"/>
<path d="M7.39074 6.31253C6.35011 5.46878 5.35636 5.13987 4.76574 5.01409C4.61036 4.98095 4.44822 5.00673 4.31078 5.08643C4.17334 5.16612 4.07042 5.29403 4.02199 5.44534C3.71886 6.38284 3.33605 8.54378 4.88996 11.2477C6.44386 13.9516 9.03605 15.4196 9.99699 15.6227" stroke="black" stroke-width="1.5" stroke-linecap="round" stroke-linejoin="round"/>
<path d="M12.6094 6.31253C13.65 5.46722 14.6406 5.14065 15.2313 5.01409C15.3866 4.98095 15.5488 5.00673 15.6862 5.08643C15.8236 5.16612 15.9266 5.29403 15.975 5.44534C16.2781 6.38284 16.6609 8.54378 15.107 11.2477C13.5531 13.9516 10.9609 15.4196 10 15.625" stroke="black" stroke-width="1.5" stroke-linecap="round" stroke-linejoin="round"/>
<path d="M10 15.6251C11.2008 15.6251 13.1852 15.611 15.4688 14.247C17.7523 12.8829 18.4914 11.1735 18.7281 10.2985C18.7725 10.1407 18.7525 9.97164 18.6725 9.82846C18.5926 9.68528 18.4592 9.57958 18.3016 9.53446C17.5128 9.33801 16.69 9.32092 15.8938 9.48446" stroke="black" stroke-width="1.5" stroke-linecap="round" stroke-linejoin="round"/>
<path d="M4.10601 9.48446C3.30976 9.32092 2.48697 9.33801 1.69819 9.53446C1.54054 9.57958 1.40716 9.68528 1.32723 9.82846C1.24729 9.97164 1.2273 10.1407 1.27163 10.2985C1.50601 11.1735 2.24741 12.8821 4.53101 14.247C6.8146 15.6118 8.79898 15.6251 9.99976 15.6251" stroke="black" stroke-width="1.5" stroke-linecap="round" stroke-linejoin="round"/>
</g>
<defs>
<clipPath id="clip0_4010_202647">
<rect width="20" height="20" fill="white"/>
</clipPath>
</defs>
</svg>
