<svg width="20" height="20" viewBox="0 0 20 20" fill="none" xmlns="http://www.w3.org/2000/svg">
<path d="M6.04998 1.6665H13.9417C14.4833 1.6665 14.9667 1.68319 15.4 1.74153C17.7083 1.99986 18.3333 3.08318 18.3333 6.04985V11.3165C18.3333 14.2832 17.7083 15.3665 15.4 15.6248C14.9667 15.6832 14.4917 15.6999 13.9417 15.6999H6.04998C5.50832 15.6999 5.02498 15.6832 4.59165 15.6248C2.28332 15.3665 1.65833 14.2832 1.65833 11.3165V6.04985C1.65833 3.08318 2.28332 1.99986 4.59165 1.74153C5.02498 1.68319 5.50832 1.6665 6.04998 1.6665Z" stroke="black" stroke-width="1.5" stroke-linecap="round" stroke-linejoin="round"/>
<path d="M11.3167 6.93311H14.3833" stroke="black" stroke-width="1.5" stroke-linecap="round" stroke-linejoin="round"/>
<path d="M5.6167 11.7583H5.63336H14.3917" stroke="black" stroke-width="1.5" stroke-linecap="round" stroke-linejoin="round"/>
<path d="M5.83337 18.3335H14.1667" stroke="black" stroke-width="1.5" stroke-linecap="round" stroke-linejoin="round"/>
<path d="M5.99559 6.91667H6.00307" stroke="black" stroke-width="2" stroke-linecap="round" stroke-linejoin="round"/>
<path d="M8.74546 6.91667H8.75295" stroke="black" stroke-width="2" stroke-linecap="round" stroke-linejoin="round"/>
</svg>
