<svg width="288" height="38" viewBox="0 0 288 38" fill="none" xmlns="http://www.w3.org/2000/svg">
<path d="M46.5153 28.3627C46.5153 27.7188 46.7411 27.1722 47.1927 26.7264C47.6391 26.2841 48.1748 26.0613 48.7979 26.0613C49.4754 26.0613 50.0548 26.3337 50.5361 26.8803C51.3554 27.8285 52.3374 28.3044 53.4752 28.3044C54.2559 28.3044 54.9036 28.0567 55.4235 27.5596C55.9433 27.0643 56.2042 26.4628 56.2042 25.7588C56.2042 24.9698 55.9346 24.3259 55.3937 23.8341C54.8546 23.3388 54.1316 23.0893 53.2336 23.0893H53.1163C52.5317 23.0893 52.0556 22.8965 51.6739 22.5091C51.2958 22.1217 51.105 21.6317 51.105 21.0408C51.105 20.45 51.3011 19.9847 51.6897 19.5778C52.0818 19.171 52.5334 18.9675 53.0533 18.9675C53.6957 18.9675 54.2314 18.7747 54.6585 18.3979C55.0909 18.0158 55.3062 17.5453 55.3062 16.9845C55.3062 16.4644 55.1294 16.0328 54.781 15.6896C54.4274 15.3482 53.9758 15.1783 53.4174 15.1783C52.4949 15.1783 51.7142 15.6206 51.077 16.5122C50.6797 17.0782 50.1055 17.3595 49.3686 17.3595C48.8084 17.3595 48.3288 17.1614 47.9262 16.7687C47.5288 16.3724 47.3275 15.8806 47.3275 15.2951C47.3275 14.7697 47.4903 14.3186 47.8089 13.9312C49.3896 11.9128 51.4061 10.9009 53.8655 10.9009C55.6913 10.9009 57.1792 11.4263 58.3275 12.4735C59.4705 13.5243 60.0447 14.775 60.0447 16.2238C60.0447 18.0194 59.2692 19.4027 57.7236 20.3704C58.8579 20.8763 59.7611 21.621 60.4281 22.6028C61.0915 23.5846 61.4241 24.7398 61.4241 26.0789C61.4241 27.9789 60.7221 29.5851 59.313 30.8906C57.9004 32.1944 56.0781 32.8507 53.8358 32.8507C51.077 32.8507 48.8487 31.8884 47.1507 29.969C46.7289 29.4631 46.5171 28.927 46.5171 28.3627H46.5153Z" fill="black"/>
<path d="M79.0268 20.3332V30.4572C79.0268 31.1224 78.7958 31.6867 78.3354 32.1537C77.8733 32.6207 77.3149 32.8525 76.6567 32.8525C75.9985 32.8525 75.4681 32.6384 75.0218 32.2121C74.5701 31.7911 74.3251 31.2639 74.2848 30.6341C73.8437 31.2639 73.21 31.7893 72.3803 32.2121C71.5506 32.6384 70.6333 32.8525 69.6373 32.8525C67.6733 32.8525 66.0208 32.1325 64.6712 30.6996C63.3216 29.2614 62.6494 27.4959 62.6494 25.3926C62.6494 23.2892 63.3216 21.5238 64.6712 20.0909C66.0208 18.658 67.675 17.938 69.6373 17.938C70.6333 17.938 71.5506 18.152 72.3803 18.5731C73.21 18.9994 73.8437 19.5248 74.2848 20.151C74.3233 19.5266 74.5701 19.0012 75.0218 18.5731C75.4681 18.152 76.0125 17.938 76.6567 17.938C77.3009 17.938 77.8733 18.1715 78.3354 18.6332C78.7975 19.1002 79.0268 19.6645 79.0268 20.335V20.3332ZM73.147 27.7577C73.7842 27.1138 74.1045 26.3248 74.1045 25.3926C74.1045 24.4603 73.7859 23.6766 73.147 23.031C72.5046 22.3817 71.7239 22.058 70.8066 22.058C69.8894 22.058 69.1087 22.38 68.4662 23.031C67.8291 23.6749 67.5087 24.4638 67.5087 25.3926C67.5087 26.3213 67.8273 27.1138 68.4662 27.7577C69.1087 28.4017 69.8894 28.7254 70.8066 28.7254C71.7239 28.7254 72.5046 28.4034 73.147 27.7577Z" fill="black"/>
<path d="M96.9604 25.3908C96.9604 27.4747 96.2147 29.2349 94.7268 30.6837C93.2354 32.1272 91.3799 32.8507 89.1603 32.8507C86.8199 32.8507 84.9207 32.0564 83.4625 30.4697C81.9991 28.8829 81.2744 26.6751 81.2744 23.8483C81.2744 19.6628 82.1182 16.4184 83.8074 14.117C85.4966 11.8102 88.3236 10.4162 92.2832 9.93504C92.9413 9.85013 93.4962 10.0235 93.9461 10.4463C94.3977 10.8726 94.6183 11.398 94.6183 12.0242C94.6183 12.5903 94.4275 13.0715 94.0336 13.4677C93.645 13.8605 93.1706 14.0674 92.6105 14.0869C90.692 14.4089 89.2776 14.9997 88.3796 15.8577C87.4816 16.7209 86.981 17.846 86.883 19.24C87.6777 18.5696 88.7577 18.2387 90.1231 18.2387C92.0819 18.2387 93.7116 18.9375 95.0122 20.3315C96.3128 21.7255 96.9604 23.4113 96.9604 25.3908ZM91.2906 27.6039C91.9086 27.0183 92.2236 26.2842 92.2236 25.3926C92.2236 24.501 91.9103 23.7651 91.2906 23.1813C90.6727 22.5958 89.9603 22.3039 89.1603 22.3039C88.3604 22.3039 87.6479 22.5958 87.03 23.1813C86.4121 23.7669 86.1022 24.5063 86.1022 25.3926C86.1022 26.2789 86.4121 27.0201 87.03 27.6039C87.6479 28.1947 88.3604 28.4866 89.1603 28.4866C89.9603 28.4866 90.6727 28.1947 91.2906 27.6039Z" fill="black"/>
<path d="M111.454 20.119C112.975 21.5519 113.737 23.3138 113.737 25.3906C113.737 27.4674 112.981 29.2347 111.47 30.6835C109.963 32.127 108.118 32.8505 105.939 32.8505C103.759 32.8505 101.914 32.127 100.402 30.6835C98.8947 29.2347 98.1385 27.4745 98.1385 25.3906C98.1385 23.3067 98.8947 21.5466 100.402 20.1031C101.914 18.6596 103.759 17.936 105.939 17.936C108.118 17.936 109.958 18.6649 111.454 20.119ZM108.067 27.6036C108.685 27.0181 108.995 26.284 108.995 25.3924C108.995 24.5008 108.685 23.7649 108.067 23.1811C107.444 22.5956 106.737 22.3037 105.937 22.3037C105.137 22.3037 104.424 22.5956 103.807 23.1811C103.189 23.7667 102.874 24.5061 102.874 25.3924C102.874 26.2787 103.187 27.0199 103.807 27.6036C104.424 28.1945 105.137 28.4864 105.937 28.4864C106.737 28.4864 107.444 28.1945 108.067 27.6036Z" fill="black"/>
<path d="M125.255 22.1179H122.978V30.4552C122.978 31.1204 122.747 31.6847 122.286 32.1517C121.824 32.6187 121.266 32.8505 120.608 32.8505C119.949 32.8505 119.386 32.617 118.929 32.1517C118.467 31.6847 118.237 31.1204 118.237 30.4552V22.1179H115.96C115.44 22.1179 114.994 21.9339 114.624 21.5572C114.252 21.1857 114.07 20.7346 114.07 20.2074C114.07 19.6802 114.252 19.2344 114.624 18.8576C114.992 18.4862 115.438 18.2969 115.96 18.2969H125.255C125.775 18.2969 126.221 18.4862 126.591 18.8576C126.964 19.2344 127.146 19.6802 127.146 20.2074C127.146 20.7346 126.964 21.1839 126.591 21.5572C126.223 21.9339 125.777 22.1179 125.255 22.1179Z" fill="black"/>
<path d="M143.945 20.3332V30.4572C143.945 31.1224 143.714 31.6867 143.253 32.1537C142.791 32.6207 142.233 32.8525 141.575 32.8525C140.917 32.8525 140.391 32.6384 139.94 32.2121C139.488 31.7911 139.243 31.2639 139.203 30.6341C138.765 31.2639 138.128 31.7893 137.298 32.2121C136.469 32.6384 135.557 32.8525 134.555 32.8525C132.597 32.8525 130.942 32.1325 129.593 30.6996C128.243 29.2614 127.566 27.4959 127.566 25.3926C127.566 23.2892 128.243 21.5238 129.593 20.0909C130.942 18.658 132.597 17.938 134.555 17.938C135.557 17.938 136.469 18.152 137.298 18.5731C138.128 18.9994 138.765 19.5248 139.203 20.151C139.241 19.5266 139.488 19.0012 139.94 18.5731C140.391 18.152 140.936 17.938 141.575 17.938C142.214 17.938 142.791 18.1715 143.253 18.6332C143.716 19.1002 143.945 19.6645 143.945 20.335V20.3332ZM138.065 27.7577C138.702 27.1138 139.028 26.3248 139.028 25.3926C139.028 24.4603 138.704 23.6766 138.065 23.031C137.428 22.3817 136.647 22.058 135.725 22.058C134.802 22.058 134.027 22.38 133.388 23.031C132.745 23.6749 132.425 24.4638 132.425 25.3926C132.425 26.3213 132.744 27.1138 133.388 27.7577C134.025 28.4017 134.806 28.7254 135.725 28.7254C136.644 28.7254 137.428 28.4034 138.065 27.7577Z" fill="black"/>
<path d="M148.885 29.4502C150.008 29.4502 150.803 30.3819 150.803 31.2816C150.803 32.3184 150.008 33.2502 148.885 33.2502C147.619 33.2502 146.823 32.3184 146.823 31.2816C146.823 30.3819 147.619 29.4502 148.885 29.4502Z" fill="#FF717D"/>
<path d="M156.771 32.1536C156.771 32.6348 156.377 33.0328 155.901 33.0328C155.424 33.0328 155.01 32.6348 155.01 32.1536V19.9103H150.744C150.31 19.9103 149.937 19.5335 149.937 19.0736C149.937 18.6136 150.31 18.2368 150.744 18.2368H161.036C161.471 18.2368 161.843 18.6136 161.843 19.0736C161.843 19.5335 161.471 19.9103 161.036 19.9103H156.771V32.1536Z" fill="black"/>
<path d="M173.4 33.0331C173.027 33.0331 172.758 32.8455 172.509 32.5307L168.346 27.0255H165.985V32.1539C165.985 32.635 165.591 33.0331 165.115 33.0331C164.639 33.0331 164.224 32.635 164.224 32.1539V19.1145C164.224 18.6334 164.618 18.2353 165.094 18.2353C166.192 18.2141 167.807 18.1929 168.117 18.1929C172.073 18.1929 173.274 20.1812 173.274 22.5464C173.274 24.9116 171.721 26.2719 170.127 26.6912L173.979 31.609C174.125 31.7983 174.207 32.0283 174.207 32.2158C174.207 32.6545 173.897 33.0313 173.4 33.0313V33.0331ZM165.985 25.352H168.119C169.796 25.352 171.412 24.3048 171.412 22.5676C171.412 21.0604 170.584 19.8681 168.016 19.8681C167.56 19.8681 166.669 19.8893 165.985 19.9106V25.352Z" fill="black"/>
<path d="M185.144 28.4492H178.538L176.88 32.4471C176.694 32.9071 176.425 33.0327 176.092 33.0327C175.553 33.0327 175.264 32.6346 175.264 32.2171C175.264 32.0915 175.306 31.9659 175.347 31.8403L180.897 18.8435C181.083 18.4242 181.415 18.1323 181.913 18.1323C182.41 18.1323 182.741 18.4454 182.907 18.8435L188.437 31.7784C188.479 31.904 188.498 32.0084 188.498 32.134C188.498 32.5939 188.188 33.0344 187.649 33.0344C187.276 33.0344 186.966 32.8045 186.821 32.4489L185.144 28.4509V28.4492ZM181.85 20.5152L179.24 26.7739H184.46L181.85 20.5152Z" fill="black"/>
<path d="M188.788 18.1309C189.223 18.1309 189.471 18.3608 189.658 18.8208L194.339 30.291L198.896 18.8208C199.102 18.3184 199.351 18.1309 199.724 18.1309C200.242 18.1309 200.552 18.5077 200.552 18.9269C200.552 19.0313 200.51 19.1569 200.469 19.2825L195.188 32.3643C195.022 32.7835 194.773 33.0347 194.297 33.0347C193.821 33.0347 193.53 32.7216 193.385 32.3643L188.001 19.3869C187.959 19.2613 187.918 19.1357 187.918 19.0101C187.918 18.5501 188.228 18.1309 188.788 18.1309Z" fill="black"/>
<path d="M210.659 31.2108C211.093 31.2108 211.466 31.5876 211.466 32.0476C211.466 32.5075 211.093 32.8843 210.659 32.8843H203.949C203.473 32.8843 203.079 32.4863 203.079 32.0051V19.1126C203.079 18.6314 203.473 18.2334 203.949 18.2334H210.452C210.886 18.2334 211.259 18.6102 211.259 19.0701C211.259 19.5301 210.886 19.9069 210.452 19.9069H204.84V24.6372H209.831C210.265 24.6372 210.638 25.014 210.638 25.4739C210.638 25.9339 210.265 26.3107 209.831 26.3107H204.84V31.2091H210.661L210.659 31.2108Z" fill="black"/>
<path d="M223.085 31.2107C223.52 31.2107 223.892 31.5875 223.892 32.0474C223.892 32.5074 223.52 32.8842 223.085 32.8842H215.858C215.382 32.8842 214.988 32.4862 214.988 32.005V18.9869C214.988 18.5269 215.382 18.1289 215.879 18.1289C216.376 18.1289 216.749 18.5269 216.749 18.9869V31.2107H223.087H223.085Z" fill="black"/>
<path d="M245.185 21.7521C245.185 20.305 246.235 19.187 247.702 19.187C249.169 19.187 250.22 20.2343 250.22 21.7521C250.22 23.2699 249.134 24.3171 247.702 24.3171C246.27 24.3171 245.185 23.2699 245.185 21.7521ZM245.821 21.7521C245.821 22.8842 246.645 23.7475 247.704 23.7475C248.833 23.7475 249.588 22.8789 249.588 21.7521C249.588 20.6252 248.763 19.7566 247.704 19.7566C246.645 19.7566 245.821 20.5898 245.821 21.7521Z" fill="black"/>
<path d="M252.737 23.997C252.737 24.1615 252.602 24.2959 252.441 24.2959C252.28 24.2959 252.138 24.1597 252.138 23.997V19.8274H250.685C250.536 19.8274 250.41 19.6983 250.41 19.5426C250.41 19.3869 250.538 19.2578 250.685 19.2578H254.19C254.338 19.2578 254.464 19.3869 254.464 19.5426C254.464 19.6983 254.337 19.8274 254.19 19.8274H252.737V23.997Z" fill="black"/>
<path d="M254.825 24.2464V24.8956C254.825 25.046 254.699 25.1734 254.543 25.1734C254.387 25.1734 254.261 25.0442 254.261 24.8956V23.9757C254.261 23.8112 254.396 23.6768 254.557 23.6768H254.79C254.995 23.4203 255.495 22.3447 255.6 20.2555L255.635 19.5568C255.643 19.3852 255.777 19.2578 255.945 19.2578H258.258C258.42 19.2578 258.554 19.394 258.554 19.5568V23.675H258.928C259.091 23.675 259.224 23.8112 259.224 23.974V24.8939C259.224 25.0442 259.098 25.1716 258.942 25.1716C258.786 25.1716 258.66 25.0425 258.66 24.8939V24.2446H254.825V24.2464ZM257.955 23.675V19.8274H256.227L256.164 20.719C256.043 22.4367 255.635 23.4486 255.452 23.6768H257.955V23.675Z" fill="black"/>
<path d="M260.472 24.2461C260.302 24.2461 260.176 24.1099 260.176 23.9472V19.5141C260.176 19.3566 260.311 19.2222 260.479 19.2222C260.647 19.2222 260.775 19.3584 260.775 19.5141V21.1097C261.043 21.0885 261.269 21.0743 261.431 21.0743C262.672 21.0743 263.257 21.6722 263.257 22.6134C263.257 23.6606 262.524 24.2603 261.297 24.2603C261.001 24.2603 260.712 24.2532 260.472 24.2461ZM260.775 23.6677C260.966 23.6748 261.141 23.6889 261.367 23.6889C262.177 23.6889 262.622 23.3333 262.622 22.6275C262.622 21.9942 262.184 21.6439 261.388 21.6439C261.225 21.6439 261.022 21.6581 260.775 21.6864V23.6677ZM264.358 19.2222C264.521 19.2222 264.654 19.3584 264.654 19.5141V23.9967C264.654 24.1612 264.519 24.2957 264.358 24.2957C264.197 24.2957 264.055 24.1595 264.055 23.9967V19.5141C264.055 19.3566 264.19 19.2222 264.358 19.2222Z" fill="black"/>
<path d="M266.042 19.2222C266.17 19.2222 266.24 19.2929 266.338 19.4362L267.642 21.253L268.925 19.4362C269.03 19.2788 269.123 19.2222 269.249 19.2222C269.412 19.2222 269.524 19.3425 269.524 19.4928C269.524 19.5494 269.503 19.6149 269.461 19.6786L268.015 21.7094L269.538 23.8463C269.573 23.8888 269.587 23.9454 269.587 24.0038C269.587 24.1471 269.482 24.2957 269.312 24.2957C269.193 24.2957 269.114 24.2461 269.023 24.117L267.619 22.1711L266.229 24.117C266.152 24.2231 266.053 24.2957 265.934 24.2957C265.764 24.2957 265.659 24.1595 265.659 24.0109C265.659 23.9472 265.68 23.8817 265.722 23.8251L267.238 21.7094L265.806 19.6927C265.764 19.6361 265.75 19.5724 265.75 19.507C265.75 19.3566 265.855 19.2222 266.039 19.2222H266.042Z" fill="black"/>
<path d="M273.298 22.7352H271.048L270.485 24.0956C270.422 24.253 270.329 24.2955 270.217 24.2955C270.033 24.2955 269.935 24.1593 269.935 24.0178C269.935 23.9753 269.949 23.9328 269.963 23.8886L271.854 19.4626C271.917 19.3193 272.03 19.2202 272.198 19.2202C272.367 19.2202 272.48 19.3264 272.536 19.4626L274.42 23.8674C274.434 23.9098 274.441 23.9452 274.441 23.9877C274.441 24.1451 274.336 24.2937 274.152 24.2937C274.026 24.2937 273.919 24.2159 273.87 24.0938L273.3 22.7335L273.298 22.7352ZM272.177 20.034L271.288 22.1638H273.065L272.176 20.034H272.177Z" fill="black"/>
<path d="M279.468 23.9966C279.468 24.1611 279.333 24.2956 279.172 24.2956C279.011 24.2956 278.87 24.1593 278.87 23.9966V20.2622L275.999 24.0744C275.894 24.2177 275.794 24.2956 275.647 24.2956C275.449 24.2956 275.344 24.1664 275.344 23.9683V19.5139C275.344 19.3565 275.479 19.222 275.647 19.222C275.815 19.222 275.943 19.3583 275.943 19.5139V23.2483L278.814 19.4361C278.912 19.3087 279.004 19.222 279.151 19.222C279.356 19.222 279.468 19.3494 279.468 19.5422V23.9966ZM278.551 18.0669C278.621 18.0952 278.721 18.1589 278.721 18.288C278.721 18.3305 278.714 18.3729 278.693 18.4242C278.558 18.7515 278.029 19.008 277.452 19.008C276.816 19.008 276.316 18.7869 276.19 18.4242C276.176 18.3818 276.169 18.3464 276.169 18.3022C276.169 18.196 276.218 18.0952 276.324 18.0669C276.359 18.0527 276.394 18.0527 276.422 18.0527C276.564 18.0527 276.648 18.166 276.76 18.3375C276.888 18.5091 277.156 18.5799 277.452 18.5799C277.726 18.5799 278.015 18.5091 278.171 18.2809C278.255 18.1589 278.355 18.0527 278.474 18.0527C278.495 18.0527 278.523 18.0598 278.551 18.0669Z" fill="black"/>
<path d="M282.605 23.997C282.605 24.1615 282.47 24.2959 282.309 24.2959C282.148 24.2959 282.006 24.1597 282.006 23.997V19.8274H280.554C280.405 19.8274 280.279 19.6983 280.279 19.5426C280.279 19.3869 280.406 19.2578 280.554 19.2578H284.058C284.207 19.2578 284.333 19.3869 284.333 19.5426C284.333 19.6983 284.207 19.8274 284.058 19.8274H282.605V23.997Z" fill="black"/>
<path d="M287.725 23.675C287.874 23.675 288 23.8042 288 23.9598C288 24.1155 287.872 24.2446 287.725 24.2446H285.441C285.278 24.2446 285.145 24.1084 285.145 23.9457V19.5568C285.145 19.3923 285.28 19.2578 285.441 19.2578H287.655C287.804 19.2578 287.93 19.3869 287.93 19.5426C287.93 19.6983 287.802 19.8274 287.655 19.8274H285.744V21.4372H287.443C287.592 21.4372 287.718 21.5664 287.718 21.722C287.718 21.8777 287.59 22.0068 287.443 22.0068H285.744V23.675H287.725Z" fill="black"/>
<path d="M248.655 28.5343C248.38 28.384 248.056 28.3061 247.653 28.3061C246.582 28.3061 245.821 29.1181 245.821 30.3016C245.821 31.485 246.603 32.297 247.746 32.297C248.128 32.297 248.466 32.205 248.768 32.0193C248.824 31.9839 248.889 31.9697 248.945 31.9697C249.022 31.9697 249.101 31.998 249.157 32.0688C249.192 32.1113 249.206 32.1608 249.206 32.2121C249.206 32.3041 249.15 32.3978 249.071 32.4544C248.712 32.711 248.212 32.8684 247.688 32.8684C246.207 32.8684 245.185 31.8565 245.185 30.3033C245.185 28.8704 246.102 27.7383 247.646 27.7383C248.168 27.7383 248.634 27.8816 248.943 28.0726C249.041 28.1363 249.092 28.223 249.092 28.315C249.092 28.3574 249.078 28.407 249.05 28.4512C248.994 28.5432 248.915 28.5786 248.824 28.5786C248.768 28.5786 248.712 28.5644 248.655 28.5361V28.5343Z" fill="black"/>
<path d="M252.83 27.7363C253.682 27.7363 254.261 28.214 254.261 29.0613C254.261 29.4823 254.029 29.9529 253.549 30.2094C254.148 30.3385 254.452 30.8286 254.452 31.3999C254.452 32.3198 253.67 32.8682 252.767 32.8682C252.131 32.8682 251.688 32.6046 251.328 32.2986C251.265 32.242 251.23 32.1571 251.23 32.0704C251.23 32.0138 251.251 31.9572 251.286 31.9059C251.342 31.8351 251.42 31.7997 251.504 31.7997C251.567 31.7997 251.623 31.8139 251.681 31.8563C252.047 32.127 252.394 32.2986 252.732 32.2986C253.374 32.2986 253.854 31.9643 253.854 31.3433C253.854 30.8515 253.502 30.5314 252.887 30.5314H252.591C252.443 30.5314 252.317 30.404 252.317 30.2395C252.317 30.075 252.437 29.9617 252.577 29.9617H252.845C253.262 29.9617 253.663 29.6203 253.663 29.1215C253.663 28.5801 253.274 28.3095 252.767 28.3095C252.364 28.3095 252.096 28.4528 251.807 28.6721C251.751 28.7146 251.686 28.7358 251.616 28.7358C251.553 28.7358 251.482 28.7146 251.426 28.6509C251.384 28.6014 251.363 28.5448 251.363 28.4864C251.363 28.4015 251.412 28.3219 251.482 28.2582C251.884 27.9238 252.271 27.7381 252.828 27.7381L252.83 27.7363Z" fill="black"/>
<path d="M258.47 31.2852H256.22L255.657 32.6456C255.593 32.803 255.501 32.8455 255.389 32.8455C255.205 32.8455 255.107 32.7093 255.107 32.5677C255.107 32.5253 255.121 32.4828 255.135 32.4404L257.025 28.0143C257.088 27.871 257.202 27.772 257.37 27.772C257.538 27.772 257.652 27.8781 257.708 28.0143L259.592 32.4191C259.606 32.4616 259.613 32.497 259.613 32.5394C259.613 32.6969 259.508 32.8455 259.324 32.8455C259.198 32.8455 259.091 32.7676 259.042 32.6456L258.471 31.2852H258.47ZM257.349 28.5839L256.46 30.7138H258.237L257.347 28.5839H257.349Z" fill="black"/>
<path d="M261.114 29.8098C261.361 29.7815 261.678 29.7674 261.869 29.7674C262.975 29.7674 263.597 30.337 263.597 31.2356C263.597 32.2687 262.884 32.8242 261.699 32.8242C261.354 32.8242 261.05 32.8101 260.81 32.803C260.64 32.7959 260.514 32.6597 260.514 32.4969V28.108C260.514 27.9435 260.649 27.8091 260.81 27.8091H263.031C263.18 27.8091 263.306 27.9382 263.306 28.0939C263.306 28.2496 263.178 28.3787 263.031 28.3787H261.113V29.8116L261.114 29.8098ZM261.114 32.2263C261.333 32.2404 261.552 32.2546 261.792 32.2546C262.602 32.2546 262.998 31.8849 262.998 31.2781C262.998 30.7226 262.623 30.337 261.834 30.337C261.643 30.337 261.375 30.3511 261.114 30.3794V32.2245V32.2263Z" fill="black"/>
<path d="M264.442 30.3014C264.442 28.8543 265.492 27.7363 266.959 27.7363C268.426 27.7363 269.476 28.7836 269.476 30.3014C269.476 31.8192 268.391 32.8664 266.959 32.8664C265.527 32.8664 264.442 31.8192 264.442 30.3014ZM265.076 30.3014C265.076 31.4353 265.9 32.2968 266.959 32.2968C268.088 32.2968 268.843 31.4282 268.843 30.3014C268.843 29.1745 268.018 28.3059 266.959 28.3059C265.9 28.3059 265.076 29.1391 265.076 30.3014Z" fill="black"/>
<path d="M271.994 32.5463C271.994 32.7108 271.859 32.8453 271.698 32.8453C271.537 32.8453 271.395 32.709 271.395 32.5463V28.3767H269.942C269.793 28.3767 269.667 28.2476 269.667 28.0919C269.667 27.9363 269.795 27.8071 269.942 27.8071H273.447C273.595 27.8071 273.721 27.9363 273.721 28.0919C273.721 28.2476 273.594 28.3767 273.447 28.3767H271.994V32.5463Z" fill="black"/>
<path d="M273.912 30.3014C273.912 28.8543 274.962 27.7363 276.429 27.7363C277.896 27.7363 278.947 28.7836 278.947 30.3014C278.947 31.8192 277.861 32.8664 276.429 32.8664C274.997 32.8664 273.912 31.8192 273.912 30.3014ZM274.546 30.3014C274.546 31.4353 275.37 32.2968 276.429 32.2968C277.558 32.2968 278.313 31.4282 278.313 30.3014C278.313 29.1745 277.488 28.3059 276.429 28.3059C275.37 28.3059 274.546 29.1391 274.546 30.3014Z" fill="black"/>
<path d="M284.163 32.5463C284.163 32.7108 284.028 32.8452 283.867 32.8452C283.706 32.8452 283.564 32.709 283.564 32.5463V28.8119L280.694 32.6241C280.588 32.7674 280.489 32.8452 280.342 32.8452C280.144 32.8452 280.039 32.7161 280.039 32.518V28.0636C280.039 27.9062 280.174 27.7717 280.342 27.7717C280.51 27.7717 280.637 27.9062 280.637 28.0636V31.798L283.508 27.9858C283.606 27.8584 283.699 27.7717 283.846 27.7717C284.051 27.7717 284.163 27.8991 284.163 28.0919V32.5463ZM283.247 26.6183C283.317 26.6466 283.417 26.7103 283.417 26.8395C283.417 26.8819 283.41 26.9244 283.389 26.9757C283.254 27.3029 282.726 27.5595 282.148 27.5595C281.513 27.5595 281.012 27.3383 280.886 26.9757C280.872 26.9332 280.865 26.8978 280.865 26.8554C280.865 26.7492 280.914 26.6484 281.021 26.6201C281.056 26.606 281.091 26.606 281.119 26.606C281.261 26.606 281.345 26.7192 281.457 26.8908C281.585 27.0624 281.852 27.1331 282.148 27.1331C282.423 27.1331 282.712 27.0624 282.868 26.8342C282.952 26.7121 283.051 26.606 283.17 26.606C283.191 26.606 283.219 26.613 283.247 26.6201V26.6183Z" fill="black"/>
<path d="M35.5696 10.876C35.7236 10.876 35.8392 10.9803 35.8392 11.228C35.8392 11.4881 35.7114 11.5924 35.5696 11.5924H34.6296V13.9346C34.6296 14.1822 34.4756 14.3503 34.1797 14.3503C33.8839 14.3503 33.6896 14.207 33.6896 13.9346V11.5924H32.7496C32.6078 11.5924 32.48 11.4881 32.48 11.228C32.48 10.968 32.5956 10.876 32.7496 10.876H35.5696ZM38.9935 11.3961C39.1476 10.9803 39.2386 10.876 39.7795 10.876C40.2434 10.876 40.4237 10.9803 40.4237 11.527V13.9859C40.4237 14.2194 40.3081 14.3503 39.9983 14.3503C39.6885 14.3503 39.5729 14.207 39.5729 13.9859V11.7481L38.724 14.0372C38.6469 14.2459 38.5699 14.3503 38.4141 14.3503C38.2461 14.3503 38.1953 14.2725 38.106 14.0372L37.2308 11.7481V13.9859C37.2308 14.2194 37.1153 14.3503 36.8054 14.3503C36.4956 14.3503 36.3818 14.207 36.3818 13.9859V11.3978C36.3818 10.9821 36.4974 10.8777 37.0383 10.8777C37.5021 10.8777 37.6562 10.9697 37.8242 11.4244L38.4159 12.9864L38.9953 11.3996L38.9935 11.3961Z" fill="#FF717D"/>
<path d="M10.3085 21.0249C10.3383 21.0372 10.3488 21.0477 10.3085 21.0249V21.0249Z" fill="#FF717D"/>
<path d="M11.898 22.0768C11.8875 22.068 11.87 22.0452 11.8542 22.0242C11.8332 22.0084 11.863 22.0662 11.9015 22.0803C11.9015 22.0803 11.9015 22.0803 11.8998 22.0785L11.898 22.0768Z" fill="#FF717D"/>
<path d="M31.7168 17.1542C31.1952 16.2573 30.0521 16.1547 29.1821 16.5262C27.9078 17.0693 26.931 18.0688 25.8475 18.902C25.8387 18.9091 25.83 18.9161 25.8177 18.925C25.6217 19.0754 25.4221 19.224 25.2208 19.3672C25.6882 18.1537 26.2991 17.0003 26.8943 15.8451C27.3074 15.0438 27.7205 14.2407 28.0933 13.4181C28.4749 12.5743 28.853 11.7004 29.0894 10.8017C29.3082 9.96321 29.3362 8.97787 28.7428 8.28619C28.0216 7.44591 26.8015 7.67412 25.9543 8.16413C25.2541 8.56923 24.6852 9.17954 24.1705 9.79692C23.5806 10.5045 23.0012 11.2192 22.4428 11.9533C22.0105 12.523 21.5676 13.1262 21.13 13.7064C20.9007 14.0107 20.6696 14.3132 20.4315 14.6104C20.2337 14.8563 19.9852 15.0774 19.8521 15.3693C19.9449 15.1199 20.0429 14.8722 20.1322 14.6245C20.3107 14.1274 20.491 13.6304 20.6696 13.1333C21.3505 11.2422 22.1417 9.39182 22.7894 7.48837C23.3811 5.75475 23.9955 3.87429 23.6646 2.02214C23.4756 0.96074 22.7649 -0.0458236 21.5886 0.00370859C20.6171 0.0443957 19.8066 0.718387 19.1939 1.42599C18.5708 2.14597 18.0666 2.95441 17.5748 3.76815C17.0689 4.60489 16.563 5.44163 16.0799 6.29252C15.581 7.17172 15.0943 8.05799 14.613 8.94603C14.1421 9.81638 13.6502 10.6814 13.2143 11.5712C13.0253 11.9551 12.845 12.3443 12.6454 12.7229C12.5929 12.8202 12.5404 12.9174 12.4844 13.0147C12.5561 12.8909 12.5176 12.5973 12.5386 12.4487C12.5702 12.2152 12.6139 11.9816 12.6577 11.7481C13.1496 9.11232 13.9898 6.5508 14.1526 3.85837C14.2068 2.95795 14.0756 2.04337 13.4804 1.33754C12.9343 0.691852 12.0205 0.472495 11.2415 0.773226C10.5256 1.05096 9.93044 1.5622 9.4228 2.13182C8.44954 3.2233 7.76861 4.52352 7.06667 5.79897C6.30696 7.17879 5.57526 8.57631 4.87332 9.98621C3.50796 12.7264 2.29838 15.5497 1.41789 18.4898C1.26385 19.0028 1.12031 19.5176 0.989025 20.0359C0.871743 20.4976 0.63543 21.0779 0.63543 21.5555C0.0875316 24.1683 -0.194294 26.8607 0.171554 29.5178C0.344851 30.7756 0.698447 32.0032 1.27085 33.1372C1.87301 34.3313 2.74475 35.3467 3.80028 36.1533C6.70782 38.377 10.6394 38.4548 13.9373 37.1245C16.9341 35.9163 19.474 32.9178 19.3182 29.5196C19.2447 27.9009 18.562 26.3477 17.398 25.228C16.5332 24.3948 15.4392 23.8074 14.2734 23.5421C14.1263 22.3639 13.5697 21.2353 12.7084 20.4233C12.101 19.8519 11.3518 19.4362 10.5238 19.3248C9.83766 19.231 9.12347 19.3071 8.46004 19.5088C7.00365 19.9492 5.78882 21.0124 5.37921 22.5231C5.26193 22.9583 5.52625 23.4802 5.97437 23.5828C6.42424 23.6872 6.89687 23.4466 7.0229 22.9813C7.04391 22.9017 7.06667 22.8221 7.09467 22.7443C7.09467 22.7407 7.10168 22.7177 7.11043 22.693C7.11743 22.677 7.12443 22.6611 7.13143 22.6434C7.1997 22.4948 7.28022 22.3516 7.37125 22.2171C7.37125 22.2189 7.387 22.1906 7.40451 22.164C7.66883 21.7695 8.13971 21.4954 8.55807 21.2937C8.58433 21.2831 8.61058 21.2725 8.63509 21.2636C9.13748 21.0743 9.68712 20.9664 10.2245 21.0319C11.3798 21.1716 12.2131 22.2507 12.5036 23.3227C12.5106 23.3475 12.5159 23.3723 12.5211 23.397C10.9877 23.4855 9.43681 24.1188 8.26924 25.1271C7.69159 25.626 7.27672 26.2964 7.21721 27.073C7.15069 27.9451 7.67933 28.9588 8.43904 29.3798C9.10947 29.7531 10.0285 29.7655 10.7602 29.6062C11.4516 29.4559 12.0923 29.0561 12.5894 28.5555C13.4541 27.6851 13.967 26.5087 14.1911 25.3023C14.2033 25.3058 14.2156 25.3076 14.2261 25.3111C14.3941 25.3624 14.5587 25.4225 14.7232 25.4845C15.9171 25.9338 16.8868 26.9492 17.3262 28.1521C17.5345 28.7235 17.6273 29.3462 17.6045 29.96C17.5555 31.3682 16.8938 32.7285 15.9346 33.7316C15.4462 34.2428 14.9053 34.7116 14.2996 35.0742C13.694 35.4369 12.9553 35.6828 12.2551 35.8862C10.8144 36.3037 9.25826 36.447 7.78261 36.1321C6.98264 35.9605 6.21944 35.6598 5.51225 35.2458C4.39194 34.5913 3.4712 33.6272 2.84628 32.4844C2.12333 31.163 1.82225 29.6434 1.72948 28.1486C1.6332 26.5812 1.72947 24.9962 1.99555 23.4483C2.11458 22.7637 2.25112 22.0827 2.40516 21.4069C2.75525 19.8732 3.20512 18.366 3.73202 16.8853C3.99634 16.1441 4.27991 15.4117 4.581 14.6865C5.77307 11.8083 7.24696 9.06632 8.72961 6.33321C9.33353 5.22051 9.92869 4.07419 10.8092 3.15254C11.0472 2.90311 11.2853 2.61299 11.6004 2.46086C12.2883 2.12651 12.4354 2.90311 12.4581 3.40197C12.4791 3.85306 12.4144 4.30416 12.3636 4.75172C12.136 6.76308 11.5776 8.69306 11.1383 10.6602C10.9212 11.6331 10.7567 12.6326 10.7444 13.6321C10.7374 14.1451 10.8022 14.7024 11.2013 15.0686C11.6687 15.4967 12.3356 15.509 12.8695 15.2012C13.2791 14.9642 13.5627 14.5272 13.8077 14.1328C14.0265 13.7807 14.2138 13.4075 14.3959 13.0342C14.788 12.2293 15.2081 11.4421 15.6317 10.6531C16.549 8.9478 17.4715 7.24425 18.4692 5.58669C18.8806 4.90385 19.2937 4.18741 19.7506 3.52049C19.9869 3.17553 20.2372 2.83942 20.5103 2.521C20.7554 2.23619 21.0354 1.8594 21.403 1.73733C22.5969 1.33754 21.8144 4.83132 21.6726 5.35141C21.2595 6.87099 20.6748 8.33218 20.0989 9.79515C19.3795 11.6243 18.7283 13.4782 18.0631 15.3286C17.8041 16.0521 17.7568 17.0781 18.527 17.5151C19.3742 17.9963 20.3458 17.3187 20.9322 16.7208C21.7741 15.8611 22.4008 14.805 23.1185 13.8426C23.8905 12.8078 24.6974 11.8012 25.5377 10.8229C25.7967 10.5222 26.0715 10.2303 26.3831 9.98267C26.6019 9.80931 27.4457 9.08578 27.5682 9.68724C27.626 9.96675 27.4877 10.2675 27.4089 10.5275C26.7997 12.5424 25.711 14.368 24.7744 16.2379C24.3666 17.0534 23.9815 17.8795 23.6454 18.7269C23.4861 19.1267 23.3408 19.5318 23.213 19.9439C23.073 20.395 22.961 20.8603 23.2113 21.2955C23.6734 22.1021 24.6222 21.7324 25.2383 21.391C26.0243 20.9558 26.7297 20.388 27.4282 19.8254C28.0513 19.3248 28.692 18.7941 29.3817 18.366C29.4657 18.3147 29.5497 18.2634 29.6355 18.2138C29.8613 18.0865 30.2762 17.8565 30.3322 18.2846C30.3865 18.7056 30.1519 19.1408 29.9628 19.4981C29.7405 19.9174 29.5252 20.3402 29.2837 20.7506C28.3699 22.2967 27.2461 23.7172 26.1888 25.1625C25.9123 25.5411 25.6322 25.9161 25.3504 26.2894C25.2821 26.3796 25.2138 26.4698 25.1438 26.56C25.1368 26.5689 25.1018 26.6166 25.0808 26.6432C25.0598 26.6715 25.0248 26.7157 25.0195 26.7228C24.8725 26.9138 24.7254 27.1049 24.5766 27.2942C24.0007 28.0318 23.4126 28.7607 22.8157 29.4824C22.5286 29.8274 22.4551 30.3669 22.8157 30.7013C23.1308 30.9949 23.7154 31.071 24.0217 30.7013C25.3451 29.1056 26.6177 27.4675 27.836 25.7887C28.9371 24.2745 30.1274 22.7938 31.0254 21.1416C31.3562 20.5312 31.6713 19.8856 31.8446 19.2098C32.0179 18.5393 32.0757 17.7751 31.7133 17.1542H31.7168ZM7.10693 22.6841C7.11568 22.6576 7.12443 22.6311 7.13143 22.6257C7.12268 22.6452 7.11393 22.6647 7.10693 22.6841ZM9.54884 26.2787C9.54884 26.2787 9.55059 26.277 9.55234 26.2752C9.62411 26.2133 9.58735 26.2469 9.54884 26.2787ZM9.25476 27.8762C9.25476 27.8762 9.25301 27.8744 9.25126 27.8726C9.25301 27.8726 9.25476 27.8762 9.25826 27.8762C9.27576 27.8868 9.28977 27.8956 9.28802 27.8956C9.27926 27.8956 9.26701 27.8868 9.25476 27.8744C9.21975 27.8655 9.23025 27.8673 9.25476 27.8744V27.8762ZM9.32302 27.8992C9.33353 27.9045 9.34228 27.908 9.34403 27.9115C9.34403 27.9115 9.33528 27.9062 9.32302 27.8992ZM12.3321 25.7091C12.1203 26.3548 11.7632 26.9793 11.2468 27.4392C10.8774 27.7682 10.3751 28.0177 9.87442 28.0212C9.35803 28.0248 8.82414 27.655 8.93792 27.066C9.17248 25.8648 10.9755 25.3819 11.982 25.182C12.0328 25.1713 12.0835 25.1625 12.1343 25.1537C12.1448 25.1519 12.1833 25.1466 12.2131 25.1413C12.2428 25.1377 12.2813 25.1324 12.2918 25.1324C12.3426 25.1271 12.3951 25.1218 12.4459 25.1183C12.4599 25.1183 12.4739 25.1183 12.4879 25.1165C12.4756 25.1731 12.4651 25.2315 12.4511 25.2881C12.4161 25.4296 12.3759 25.5694 12.3303 25.7074L12.3321 25.7091ZM17.2684 28.0053C17.2684 28.0053 17.2719 28.0141 17.2737 28.0177C17.2544 27.9699 17.2264 27.8903 17.2684 28.0053ZM17.2754 28.0248C17.2754 28.0248 17.2807 28.0389 17.2859 28.0442C17.2842 28.0407 17.2807 28.0336 17.2754 28.0248ZM17.5713 30.4536C17.5713 30.4536 17.5695 30.4642 17.5678 30.4695C17.573 30.42 17.594 30.3174 17.5713 30.4536ZM6.41724 35.7022C6.45575 35.7199 6.461 35.7199 6.41724 35.7022V35.7022ZM11.982 13.7259C11.9697 13.733 11.9592 13.7383 11.9557 13.7365C11.954 13.7365 11.9662 13.7312 11.982 13.7259ZM21.5833 1.72495C21.5833 1.72495 21.5973 1.71964 21.6113 1.71964C21.6026 1.71964 21.5938 1.72318 21.5833 1.72495ZM27.4772 9.43428C27.4772 9.43428 27.4719 9.43428 27.4702 9.43251C27.4702 9.42897 27.4702 9.42543 27.4737 9.42189C27.4737 9.42189 27.4737 9.4272 27.4772 9.43428ZM27.4684 9.43251C27.4544 9.42366 27.4422 9.41659 27.4404 9.41482C27.4404 9.40774 27.4404 9.40066 27.4474 9.39182C27.4474 9.39182 27.4579 9.41128 27.4702 9.43251H27.4684ZM27.3669 9.43958C27.3669 9.43958 27.3792 9.43958 27.3862 9.43958C27.3476 9.4502 27.1971 9.43958 27.3669 9.43958ZM27.4387 9.42366C27.4387 9.42366 27.4387 9.41659 27.4387 9.41482C27.4404 9.41482 27.4492 9.42189 27.4614 9.43074C27.4527 9.42897 27.4457 9.4272 27.4369 9.42543L27.4387 9.42366ZM27.4719 9.43428C27.4719 9.43428 27.4754 9.43428 27.4772 9.43428V9.43781C27.4754 9.43781 27.4737 9.43604 27.4719 9.43428ZM27.4824 9.44135C27.4824 9.44135 27.4842 9.44135 27.4859 9.44135C27.4859 9.44135 27.4877 9.44135 27.4894 9.44135C27.4982 9.44843 27.5104 9.45727 27.5314 9.46966C27.5262 9.46612 27.5052 9.45197 27.4824 9.43958V9.44135ZM27.5104 10.0216C27.5192 9.97382 27.5297 9.93137 27.5104 10.0216V10.0216ZM27.5069 10.0375C27.5034 10.0623 27.5017 10.087 27.5034 10.0888C27.4999 10.087 27.5034 10.064 27.5069 10.0375ZM30.0801 18.0299C29.9278 18.0299 30.0364 18.0369 30.0801 18.0299V18.0299Z" fill="#FF717D"/>
<path d="M7.85612 21.7021C7.8754 21.6899 7.89643 21.6741 7.90519 21.6636C7.89643 21.6688 7.88942 21.6758 7.88066 21.6811C7.87365 21.6881 7.86664 21.6934 7.85612 21.7021Z" fill="#FF717D"/>
<path d="M20.2355 14.9023C20.1829 14.9672 20.1794 14.9724 20.19 14.9584C20.204 14.9409 20.218 14.9216 20.2338 14.9041C20.2338 14.9041 20.2338 14.9041 20.2355 14.9023Z" fill="#FF717D"/>
<path d="M11.6529 27.028C11.6634 27.0123 11.6757 26.9948 11.688 26.9807C11.6897 26.9772 11.6932 26.9737 11.695 26.9702C11.6144 27.0333 11.6214 27.0613 11.6529 27.028Z" fill="#FF717D"/>
<path d="M11.1085 27.5733C11.1085 27.5733 11.1173 27.5681 11.1208 27.5646C11.14 27.5488 11.1628 27.533 11.1751 27.5243C11.1944 27.5015 11.1611 27.505 11.1067 27.5751L11.1085 27.5733Z" fill="#FF717D"/>
<path d="M9.52613 27.9415C9.52613 27.9415 9.52964 27.9415 9.53139 27.9415C9.5349 27.9415 9.5384 27.9415 9.54191 27.9415C9.51562 27.9345 9.49108 27.9292 9.47356 27.9292C9.49108 27.9327 9.50861 27.9362 9.52613 27.9415Z" fill="#FF717D"/>
<path d="M30.0189 19.314C30.0101 19.3227 29.9961 19.3525 29.9856 19.3823C29.9996 19.3525 30.0101 19.328 30.0171 19.3175C30.0171 19.3175 30.0171 19.3157 30.0171 19.314H30.0189Z" fill="#FF717D"/>
<path d="M11.8822 2.37592C11.8822 2.37592 11.9173 2.37592 11.9681 2.3584C11.9628 2.3584 11.9576 2.3584 11.9523 2.3584C11.9278 2.36366 11.905 2.37067 11.8805 2.37592H11.8822Z" fill="#FF717D"/>
<path d="M1.82401 29.1569C1.83277 29.2082 1.84679 29.2507 1.81349 29.0791C1.81349 29.0933 1.817 29.1074 1.81875 29.1216C1.81875 29.1339 1.82225 29.1463 1.82401 29.1569Z" fill="#FF717D"/>
<path d="M30.2674 18.0883C30.2674 18.0883 30.2674 18.0848 30.2674 18.083C30.2639 18.1251 30.2639 18.1531 30.2674 18.1724C30.2674 18.1443 30.2674 18.1163 30.2674 18.0883Z" fill="#FF717D"/>
<path d="M27.4947 9.47634C27.4947 9.47634 27.4895 9.46758 27.4825 9.45707C27.4825 9.45006 27.479 9.44655 27.479 9.44129C27.4772 9.44129 27.4772 9.44129 27.4737 9.43779C27.4737 9.43779 27.4719 9.43779 27.4702 9.43779C27.4702 9.43779 27.4702 9.43779 27.4702 9.43604C27.4702 9.43604 27.4702 9.43603 27.4702 9.43779C27.4684 9.43779 27.4667 9.43779 27.4649 9.43779C27.4579 9.43779 27.4509 9.43779 27.4439 9.43779C27.4509 9.45531 27.4649 9.46758 27.4807 9.47284C27.486 9.4816 27.4912 9.49037 27.4965 9.49913C27.4947 9.49212 27.493 9.48511 27.4912 9.47634C27.493 9.47634 27.4965 9.47634 27.4982 9.47634H27.4947Z" fill="#FF717D"/>
<path d="M27.5069 9.55615C27.5069 9.58069 27.5104 9.61048 27.5209 9.6245C27.5209 9.61924 27.5209 9.61223 27.5209 9.60698C27.5174 9.59296 27.5122 9.57543 27.5087 9.55615H27.5069Z" fill="#FF717D"/>
</svg>
