<svg width="214" height="34" viewBox="0 0 214 34" fill="none" xmlns="http://www.w3.org/2000/svg">
<path d="M44.4601 25.3769C44.4601 24.8008 44.6759 24.3117 45.1076 23.9129C45.5342 23.5172 46.0462 23.3177 46.6418 23.3177C47.2893 23.3177 47.8431 23.5615 48.3033 24.0506C49.0863 24.8989 50.0249 25.3247 51.1124 25.3247C51.8587 25.3247 52.4777 25.1031 52.9746 24.6584C53.4716 24.2152 53.7208 23.677 53.7208 23.0471C53.7208 22.3411 53.4632 21.765 52.9462 21.325C52.4309 20.8818 51.7399 20.6586 50.8815 20.6586H50.7695C50.2106 20.6586 49.7555 20.4861 49.3908 20.1395C49.0294 19.7928 48.847 19.3544 48.847 18.8258C48.847 18.2971 49.0344 17.8808 49.4059 17.5168C49.7806 17.1528 50.2123 16.9707 50.7092 16.9707C51.3233 16.9707 51.8352 16.7982 52.2435 16.4611C52.6567 16.1192 52.8625 15.6982 52.8625 15.1964C52.8625 14.7311 52.6936 14.3449 52.3606 14.0378C52.0226 13.7323 51.591 13.5804 51.0572 13.5804C50.1755 13.5804 49.4293 13.9761 48.8203 14.7738C48.4405 15.2803 47.8917 15.532 47.1873 15.532C46.6519 15.532 46.1934 15.3547 45.8086 15.0033C45.4288 14.6488 45.2364 14.2088 45.2364 13.6848C45.2364 13.2148 45.392 12.8111 45.6965 12.4645C47.2074 10.6585 49.1348 9.75319 51.4856 9.75319C53.2306 9.75319 54.6528 10.2233 55.7504 11.1603C56.8429 12.1005 57.3917 13.2195 57.3917 14.5158C57.3917 16.1224 56.6505 17.3601 55.1731 18.2259C56.2573 18.6786 57.1207 19.3449 57.7581 20.2234C58.3922 21.1018 58.7101 22.1354 58.7101 23.3336C58.7101 25.0335 58.0392 26.4707 56.6923 27.6388C55.3421 28.8053 53.6004 29.3925 51.4571 29.3925C48.8203 29.3925 46.6904 28.5315 45.0674 26.8141C44.6642 26.3614 44.4617 25.8819 44.4617 25.3769H44.4601Z" fill="black"/>
<path d="M75.5351 18.1926V27.251C75.5351 27.8461 75.3143 28.351 74.8742 28.7689C74.4325 29.1867 73.8988 29.3941 73.2697 29.3941C72.6406 29.3941 72.1336 29.2025 71.707 28.8211C71.2753 28.4444 71.0411 27.9727 71.0026 27.4092C70.581 27.9727 69.9753 28.4428 69.1822 28.8211C68.3892 29.2025 67.5125 29.3941 66.5604 29.3941C64.6832 29.3941 63.1038 28.7499 61.8138 27.4678C60.5238 26.181 59.8813 24.6014 59.8813 22.7194C59.8813 20.8375 60.5238 19.2579 61.8138 17.9758C63.1038 16.6937 64.6849 16.0495 66.5604 16.0495C67.5125 16.0495 68.3892 16.241 69.1822 16.6178C69.9753 16.9992 70.581 17.4693 71.0026 18.0296C71.0394 17.4709 71.2753 17.0008 71.707 16.6178C72.1336 16.241 72.654 16.0495 73.2697 16.0495C73.8854 16.0495 74.4325 16.2585 74.8742 16.6716C75.3159 17.0894 75.5351 17.5943 75.5351 18.1942V18.1926ZM69.9151 24.8356C70.5241 24.2595 70.8303 23.5536 70.8303 22.7194C70.8303 21.8853 70.5258 21.1841 69.9151 20.6064C69.301 20.0255 68.5548 19.7359 67.6781 19.7359C66.8014 19.7359 66.0552 20.0239 65.4411 20.6064C64.8321 21.1825 64.5259 21.8885 64.5259 22.7194C64.5259 23.5504 64.8304 24.2595 65.4411 24.8356C66.0552 25.4118 66.8014 25.7014 67.6781 25.7014C68.5548 25.7014 69.301 25.4133 69.9151 24.8356Z" fill="black"/>
<path d="M92.6763 22.7178C92.6763 24.5824 91.9636 26.1573 90.5414 27.4536C89.1159 28.7451 87.3424 29.3925 85.2209 29.3925C82.9839 29.3925 81.1685 28.6818 79.7748 27.2621C78.3761 25.8423 77.6834 23.867 77.6834 21.3377C77.6834 17.5928 78.4899 14.6899 80.1044 12.6307C81.719 10.5667 84.4211 9.3195 88.2057 8.88898C88.8348 8.813 89.3652 8.96812 89.7952 9.3464C90.2269 9.72786 90.4377 10.1979 90.4377 10.7583C90.4377 11.2648 90.2553 11.6953 89.8789 12.0498C89.5074 12.4012 89.054 12.5864 88.5186 12.6038C86.6849 12.8919 85.333 13.4205 84.4747 14.1882C83.6163 14.9606 83.1378 15.9672 83.0441 17.2145C83.8037 16.6146 84.836 16.3186 86.1411 16.3186C88.0133 16.3186 89.571 16.9438 90.8141 18.1911C92.0573 19.4383 92.6763 20.9467 92.6763 22.7178ZM87.2571 24.6979C87.8477 24.174 88.1488 23.5172 88.1488 22.7194C88.1488 21.9217 87.8494 21.2633 87.2571 20.7409C86.6665 20.217 85.9855 19.9559 85.2209 19.9559C84.4563 19.9559 83.7753 20.217 83.1847 20.7409C82.5941 21.2648 82.2979 21.9265 82.2979 22.7194C82.2979 23.5124 82.5941 24.1756 83.1847 24.6979C83.7753 25.2266 84.4563 25.4877 85.2209 25.4877C85.9855 25.4877 86.6665 25.2266 87.2571 24.6979Z" fill="black"/>
<path d="M106.53 18.0011C107.984 19.2832 108.712 20.8597 108.712 22.7179C108.712 24.5761 107.989 26.1573 106.545 27.4536C105.104 28.7451 103.341 29.3925 101.258 29.3925C99.1748 29.3925 97.4113 28.7451 95.9657 27.4536C94.5251 26.1573 93.8024 24.5824 93.8024 22.7179C93.8024 20.8533 94.5251 19.2784 95.9657 17.9869C97.4113 16.6953 99.1748 16.048 101.258 16.048C103.341 16.048 105.099 16.7001 106.53 18.0011ZM103.292 24.6979C103.883 24.174 104.179 23.5172 104.179 22.7194C104.179 21.9217 103.883 21.2633 103.292 20.7409C102.697 20.217 102.021 19.9559 101.256 19.9559C100.492 19.9559 99.8106 20.217 99.2199 20.7409C98.6293 21.2648 98.3282 21.9265 98.3282 22.7194C98.3282 23.5124 98.6277 24.1756 99.2199 24.6979C99.8106 25.2266 100.492 25.4877 101.256 25.4877C102.021 25.4877 102.697 25.2266 103.292 24.6979Z" fill="black"/>
<path d="M119.721 19.7897H117.544V27.2494C117.544 27.8445 117.323 28.3494 116.883 28.7673C116.441 29.1852 115.908 29.3925 115.279 29.3925C114.65 29.3925 114.111 29.1836 113.674 28.7673C113.232 28.3494 113.013 27.8445 113.013 27.2494V19.7897H110.836C110.34 19.7897 109.913 19.6251 109.56 19.2879C109.204 18.9556 109.03 18.5519 109.03 18.0803C109.03 17.6086 109.204 17.2097 109.56 16.8726C109.911 16.5402 110.338 16.3708 110.836 16.3708H119.721C120.218 16.3708 120.644 16.5402 120.997 16.8726C121.354 17.2097 121.528 17.6086 121.528 18.0803C121.528 18.5519 121.354 18.954 120.997 19.2879C120.646 19.6251 120.219 19.7897 119.721 19.7897Z" fill="black"/>
<path d="M137.585 18.1926V27.251C137.585 27.8461 137.364 28.351 136.924 28.7689C136.482 29.1867 135.948 29.3941 135.319 29.3941C134.69 29.3941 134.188 29.2025 133.757 28.8211C133.325 28.4444 133.091 27.9727 133.052 27.4092C132.634 27.9727 132.025 28.4428 131.232 28.8211C130.439 29.2025 129.567 29.3941 128.61 29.3941C126.738 29.3941 125.157 28.7499 123.867 27.4678C122.577 26.181 121.929 24.6014 121.929 22.7194C121.929 20.8375 122.577 19.2579 123.867 17.9758C125.157 16.6937 126.738 16.0495 128.61 16.0495C129.567 16.0495 130.439 16.241 131.232 16.6178C132.025 16.9992 132.634 17.4693 133.052 18.0296C133.089 17.4709 133.325 17.0008 133.757 16.6178C134.188 16.241 134.709 16.0495 135.319 16.0495C135.93 16.0495 136.482 16.2585 136.924 16.6716C137.366 17.0894 137.585 17.5943 137.585 18.1942V18.1926ZM131.965 24.8356C132.574 24.2595 132.885 23.5536 132.885 22.7194C132.885 21.8853 132.575 21.1841 131.965 20.6064C131.356 20.0255 130.61 19.7359 129.728 19.7359C128.846 19.7359 128.105 20.0239 127.494 20.6064C126.88 21.1825 126.574 21.8885 126.574 22.7194C126.574 23.5504 126.878 24.2595 127.494 24.8356C128.103 25.4118 128.849 25.7014 129.728 25.7014C130.606 25.7014 131.356 25.4133 131.965 24.8356Z" fill="black"/>
<path d="M143.624 24.9997C144.893 24.9997 145.793 26.1031 145.793 27.1685C145.793 28.3964 144.893 29.4997 143.624 29.4997C142.192 29.4997 141.293 28.3964 141.293 27.1685C141.293 26.1031 142.192 24.9997 143.624 24.9997Z" fill="#FF717D"/>
<path d="M151.844 28.769C151.844 29.1995 151.467 29.5556 151.012 29.5556C150.557 29.5556 150.161 29.1995 150.161 28.769V17.8144H146.083C145.668 17.8144 145.312 17.4773 145.312 17.0658C145.312 16.6543 145.668 16.3171 146.083 16.3171H155.921C156.336 16.3171 156.693 16.6543 156.693 17.0658C156.693 17.4773 156.336 17.8144 155.921 17.8144H151.844V28.769Z" fill="black"/>
<path d="M167.739 29.5556C167.382 29.5556 167.125 29.3879 166.887 29.1061L162.908 24.1805H160.651V28.769C160.651 29.1995 160.275 29.5556 159.82 29.5556C159.365 29.5556 158.968 29.1995 158.968 28.769V17.1022C158.968 16.6717 159.345 16.3156 159.8 16.3156C160.849 16.2966 162.393 16.2776 162.689 16.2776C166.47 16.2776 167.618 18.0566 167.618 20.1728C167.618 22.289 166.134 23.5062 164.61 23.8813L168.292 28.2815C168.431 28.4508 168.51 28.6566 168.51 28.8244C168.51 29.2169 168.214 29.554 167.739 29.554V29.5556ZM160.651 22.6831H162.691C164.294 22.6831 165.838 21.7461 165.838 20.1918C165.838 18.8433 165.047 17.7765 162.592 17.7765C162.157 17.7765 161.305 17.7955 160.651 17.8145V22.6831Z" fill="black"/>
<path d="M178.964 25.4547H172.649L171.065 29.0318C170.887 29.4434 170.63 29.5557 170.312 29.5557C169.797 29.5557 169.521 29.1996 169.521 28.8261C169.521 28.7137 169.561 28.6013 169.599 28.4889L174.905 16.8601C175.082 16.485 175.4 16.2239 175.875 16.2239C176.35 16.2239 176.666 16.504 176.825 16.8601L182.111 28.4335C182.151 28.5459 182.169 28.6393 182.169 28.7517C182.169 29.1632 181.873 29.5573 181.358 29.5573C181.002 29.5573 180.705 29.3516 180.567 29.0334L178.964 25.4563V25.4547ZM175.815 18.3559L173.32 23.9558H178.309L175.815 18.3559Z" fill="black"/>
<path d="M182.447 16.2219C182.862 16.2219 183.1 16.4277 183.279 16.8392L187.753 27.102L192.108 16.8392C192.305 16.3897 192.543 16.2219 192.899 16.2219C193.394 16.2219 193.69 16.559 193.69 16.9342C193.69 17.0276 193.65 17.1399 193.612 17.2523L188.564 28.9571C188.405 29.3322 188.167 29.5569 187.712 29.5569C187.257 29.5569 186.98 29.2768 186.841 28.9571L181.694 17.3457C181.654 17.2333 181.616 17.1209 181.616 17.0086C181.616 16.597 181.912 16.2219 182.447 16.2219Z" fill="black"/>
<path d="M203.351 27.9251C203.766 27.9251 204.122 28.2622 204.122 28.6737C204.122 29.0853 203.766 29.4224 203.351 29.4224H196.938C196.483 29.4224 196.106 29.0663 196.106 28.6358V17.1004C196.106 16.6698 196.483 16.3137 196.938 16.3137H203.154C203.569 16.3137 203.925 16.6508 203.925 17.0624C203.925 17.4739 203.569 17.811 203.154 17.811H197.79V22.0434H202.56C202.975 22.0434 203.331 22.3806 203.331 22.7921C203.331 23.2036 202.975 23.5407 202.56 23.5407H197.79V27.9235H203.353L203.351 27.9251Z" fill="black"/>
<path d="M215.229 27.9252C215.644 27.9252 216 28.2623 216 28.6739C216 29.0854 215.644 29.4225 215.229 29.4225H208.32C207.865 29.4225 207.489 29.0664 207.489 28.6359V16.9881C207.489 16.5766 207.865 16.2204 208.34 16.2204C208.816 16.2204 209.172 16.5766 209.172 16.9881V27.9252H215.23H215.229Z" fill="black"/>
<path d="M33.998 9.73102C34.1452 9.73102 34.2557 9.8244 34.2557 10.046C34.2557 10.2787 34.1335 10.372 33.998 10.372H33.0995V12.4677C33.0995 12.6893 32.9523 12.8396 32.6695 12.8396C32.3868 12.8396 32.2011 12.7114 32.2011 12.4677V10.372H31.3026C31.1671 10.372 31.0449 10.2787 31.0449 10.046C31.0449 9.81332 31.1554 9.73102 31.3026 9.73102H33.998ZM37.2706 10.1964C37.4179 9.8244 37.5049 9.73102 38.0219 9.73102C38.4653 9.73102 38.6376 9.8244 38.6376 10.3135V12.5136C38.6376 12.7225 38.5272 12.8396 38.231 12.8396C37.9349 12.8396 37.8244 12.7114 37.8244 12.5136V10.5113L37.013 12.5595C36.9394 12.7462 36.8657 12.8396 36.7168 12.8396C36.5562 12.8396 36.5077 12.77 36.4224 12.5595L35.5858 10.5113V12.5136C35.5858 12.7225 35.4754 12.8396 35.1792 12.8396C34.8831 12.8396 34.7743 12.7114 34.7743 12.5136V10.1979C34.7743 9.82599 34.8848 9.7326 35.4018 9.7326C35.8451 9.7326 35.9924 9.81491 36.153 10.2217L36.7185 11.6193L37.2723 10.1995L37.2706 10.1964Z" fill="#FF717D"/>
<path d="M9.85306 18.8115C9.88155 18.8232 9.89161 18.8333 9.85306 18.8115V18.8115Z" fill="#FF717D"/>
<path d="M11.3723 19.7533C11.3623 19.7454 11.3455 19.7248 11.3304 19.7058C11.3103 19.6915 11.3388 19.7438 11.3757 19.7564C11.3757 19.7564 11.3757 19.7564 11.374 19.7549L11.3723 19.7533Z" fill="#FF717D"/>
<path d="M30.3154 15.3485C29.8169 14.546 28.7243 14.4542 27.8928 14.7866C26.6747 15.2725 25.7411 16.1668 24.7054 16.9123C24.6971 16.9186 24.6887 16.9249 24.677 16.9328C24.4896 17.0674 24.2989 17.2003 24.1065 17.3285C24.5532 16.2427 25.1371 15.2107 25.706 14.1772C26.1008 13.4602 26.4957 12.7416 26.8521 12.0056C27.2168 11.2506 27.5782 10.4687 27.8041 9.66464C28.0132 8.9144 28.04 8.03278 27.4728 7.41391C26.7835 6.66208 25.6173 6.86626 24.8075 7.30469C24.1383 7.66715 23.5945 8.21322 23.1026 8.76561C22.5387 9.39873 21.9849 10.0382 21.4512 10.695C21.0379 11.2047 20.6146 11.7444 20.1964 12.2636C19.9772 12.5358 19.7563 12.8065 19.5288 13.0724C19.3397 13.2924 19.1021 13.4903 18.975 13.7514C19.0637 13.5282 19.1573 13.3066 19.2427 13.0851C19.4133 12.6403 19.5857 12.1955 19.7563 11.7508C20.4072 10.0588 21.1634 8.40315 21.7825 6.70007C22.348 5.14893 22.9353 3.46642 22.6191 1.80923C22.4384 0.859556 21.7591 -0.0410538 20.6347 0.00326441C19.7061 0.0396687 18.9315 0.642713 18.3459 1.27583C17.7502 1.92003 17.2684 2.64336 16.7982 3.37145C16.3147 4.12011 15.8312 4.86877 15.3694 5.6301C14.8925 6.41675 14.4274 7.20973 13.9673 8.00429C13.5172 8.78302 13.0471 9.55701 12.6305 10.3532C12.4498 10.6966 12.2774 11.0448 12.0867 11.3836C12.0365 11.4706 11.9863 11.5577 11.9328 11.6447C12.0014 11.5339 11.9646 11.2712 11.9846 11.1382C12.0148 10.9293 12.0566 10.7204 12.0984 10.5114C12.5686 8.15307 13.3717 5.86119 13.5273 3.45217C13.5791 2.64653 13.4536 1.82823 12.8848 1.19669C12.3628 0.618971 11.4894 0.422705 10.7449 0.69178C10.0605 0.940278 9.49168 1.39771 9.00647 1.90737C8.07621 2.88395 7.42536 4.0473 6.75443 5.1885C6.0283 6.42308 5.32893 7.67348 4.658 8.93497C3.35296 11.3867 2.19683 13.9129 1.35525 16.5435C1.20801 17.0025 1.07081 17.4631 0.945329 17.9268C0.833229 18.3399 0.607357 18.8591 0.607357 19.2864C0.083667 21.6242 -0.185707 24.0332 0.163977 26.4106C0.329617 27.536 0.667589 28.6344 1.2147 29.649C1.79026 30.7174 2.62348 31.6259 3.63238 32.3477C6.41144 34.3372 10.1693 34.4069 13.3215 33.2166C16.1859 32.1356 18.6136 29.4527 18.4647 26.4122C18.3944 24.9639 17.7419 23.5742 16.6292 22.5723C15.8027 21.8268 14.757 21.3013 13.6427 21.0639C13.5022 20.0098 12.9701 19 12.1469 18.2735C11.5664 17.7622 10.8503 17.3903 10.0589 17.2905C9.403 17.2067 8.72036 17.2747 8.08625 17.4552C6.6942 17.8493 5.53305 18.8005 5.14154 20.1522C5.02944 20.5416 5.28208 21.0085 5.7104 21.1003C6.1404 21.1937 6.59214 20.9785 6.71261 20.5622C6.73268 20.491 6.75443 20.4197 6.7812 20.3501C6.7812 20.3469 6.7879 20.3263 6.79626 20.3042C6.80296 20.2899 6.80965 20.2757 6.81634 20.2599C6.88159 20.1269 6.95856 19.9987 7.04556 19.8784C7.04556 19.88 7.06062 19.8547 7.07735 19.8309C7.32999 19.478 7.78006 19.2326 8.17994 19.0522C8.20504 19.0427 8.23013 19.0332 8.25356 19.0253C8.73375 18.8559 9.25911 18.7594 9.77276 18.8179C10.877 18.943 11.6734 19.9085 11.9512 20.8677C11.9579 20.8898 11.9629 20.912 11.9679 20.9341C10.5022 21.0133 9.01985 21.5799 7.90387 22.4821C7.35174 22.9285 6.95521 23.5283 6.89832 24.2232C6.83474 25.0035 7.34003 25.9104 8.06617 26.2871C8.70698 26.6211 9.58537 26.6322 10.2847 26.4897C10.9456 26.3552 11.558 25.9975 12.0332 25.5496C12.8597 24.7708 13.3499 23.7183 13.5641 22.6388C13.5758 22.642 13.5875 22.6436 13.5975 22.6467C13.7582 22.6926 13.9154 22.7464 14.0727 22.8018C15.2138 23.2039 16.1407 24.1124 16.5606 25.1887C16.7598 25.6999 16.8484 26.2571 16.8267 26.8063C16.7798 28.0662 16.1474 29.2834 15.2305 30.1808C14.7637 30.6382 14.2467 31.0577 13.6678 31.3822C13.0889 31.7066 12.3828 31.9266 11.7136 32.1087C10.3366 32.4822 8.84919 32.6104 7.43874 32.3287C6.67412 32.1751 5.94464 31.9061 5.2687 31.5357C4.19789 30.9501 3.31783 30.0874 2.72052 29.0649C2.02952 27.8826 1.74174 26.523 1.65306 25.1855C1.56104 23.7832 1.65306 22.365 1.90738 20.98C2.02115 20.3675 2.15166 19.7581 2.29889 19.1535C2.63352 17.7812 3.06351 16.4327 3.56712 15.1079C3.81977 14.4447 4.09081 13.7894 4.37859 13.1405C5.51799 10.5652 6.92677 8.11192 8.34391 5.6665C8.92114 4.67092 9.49 3.64527 10.3316 2.82064C10.5591 2.59746 10.7867 2.33789 11.0878 2.20177C11.7454 1.90262 11.8859 2.59746 11.9077 3.04381C11.9278 3.44742 11.8658 3.85104 11.8173 4.25148C11.5998 6.05112 11.0661 7.77795 10.6461 9.53802C10.4387 10.4086 10.2814 11.3028 10.2697 12.1971C10.263 12.6561 10.3249 13.1547 10.7064 13.4823C11.1531 13.8654 11.7906 13.8765 12.3009 13.601C12.6924 13.389 12.9634 12.998 13.1977 12.645C13.4068 12.3301 13.5858 11.9961 13.7598 11.6621C14.1346 10.942 14.5362 10.2376 14.9411 9.53168C15.8178 8.00587 16.6995 6.48164 17.6532 4.99856C18.0464 4.3876 18.4412 3.74657 18.8779 3.14986C19.1038 2.84121 19.3431 2.54048 19.6041 2.25558C19.8383 2.00075 20.106 1.66362 20.4574 1.5544C21.5984 1.19669 20.8506 4.32271 20.715 4.78805C20.3202 6.14767 19.7613 7.45506 19.2109 8.76403C18.5232 10.4006 17.9008 12.0594 17.265 13.715C17.0174 14.3624 16.9722 15.2804 17.7084 15.6713C18.5182 16.1019 19.4468 15.4957 20.0073 14.9607C20.8121 14.1914 21.4111 13.2465 22.097 12.3855C22.8349 11.4595 23.6062 10.5589 24.4093 9.68363C24.6569 9.41456 24.9196 9.1534 25.2174 8.93181C25.4266 8.77669 26.233 8.12933 26.3501 8.66748C26.4053 8.91756 26.2732 9.18664 26.1979 9.41931C25.6156 11.2221 24.5749 12.8556 23.6798 14.5286C23.29 15.2582 22.9219 15.9974 22.6006 16.7556C22.4484 17.1133 22.3095 17.4757 22.1874 17.8445C22.0535 18.2481 21.9465 18.6644 22.1857 19.0538C22.6274 19.7755 23.5343 19.4447 24.1232 19.1392C24.8744 18.7499 25.5487 18.2418 26.2163 17.7385C26.8119 17.2905 27.4243 16.8157 28.0835 16.4327C28.1638 16.3868 28.2441 16.3409 28.3261 16.2965C28.5419 16.1826 28.9385 15.9768 28.992 16.3599C29.0439 16.7366 28.8197 17.1259 28.639 17.4457C28.4265 17.8208 28.2207 18.1991 27.9898 18.5663C27.1164 19.9496 26.0423 21.2206 25.0317 22.5138C24.7673 22.8525 24.4996 23.188 24.2303 23.522C24.165 23.6027 24.0998 23.6834 24.0328 23.7642C24.0262 23.7721 23.9927 23.8148 23.9726 23.8386C23.9525 23.8639 23.9191 23.9035 23.9141 23.9098C23.7735 24.0807 23.633 24.2517 23.4907 24.421C22.9403 25.0811 22.3781 25.7332 21.8076 26.3789C21.5332 26.6876 21.4629 27.1703 21.8076 27.4695C22.1087 27.7322 22.6676 27.8003 22.9604 27.4695C24.2253 26.0418 25.4416 24.5761 26.6061 23.0741C27.6585 21.7192 28.7962 20.3944 29.6546 18.9161C29.9708 18.37 30.2719 17.7923 30.4376 17.1877C30.6032 16.5878 30.6584 15.904 30.3121 15.3485H30.3154ZM6.79292 20.2963C6.80128 20.2725 6.80965 20.2488 6.81634 20.244C6.80798 20.2614 6.79961 20.2789 6.79292 20.2963ZM9.12693 23.5125C9.12693 23.5125 9.12861 23.5109 9.13028 23.5093C9.19888 23.4539 9.16374 23.484 9.12693 23.5125ZM8.84585 24.9418C8.84585 24.9418 8.84417 24.9402 8.8425 24.9386C8.84417 24.9386 8.84585 24.9418 8.84919 24.9418C8.86592 24.9513 8.87931 24.9592 8.87764 24.9592C8.86927 24.9592 8.85756 24.9513 8.84585 24.9402C8.81238 24.9323 8.82242 24.9339 8.84585 24.9402V24.9418ZM8.9111 24.9623C8.92114 24.9671 8.9295 24.9703 8.93118 24.9734C8.93118 24.9734 8.92281 24.9687 8.9111 24.9623ZM11.7872 23.0028C11.5848 23.5806 11.2434 24.1393 10.7499 24.5508C10.3968 24.8452 9.91665 25.0684 9.43814 25.0716C8.94456 25.0747 8.43426 24.7439 8.54301 24.2168C8.76721 23.1421 10.4905 22.71 11.4526 22.5312C11.5011 22.5217 11.5496 22.5138 11.5981 22.5058C11.6082 22.5043 11.645 22.4995 11.6734 22.4948C11.7019 22.4916 11.7387 22.4869 11.7487 22.4869C11.7972 22.4821 11.8474 22.4774 11.896 22.4742C11.9093 22.4742 11.9227 22.4742 11.9361 22.4726C11.9244 22.5233 11.9144 22.5755 11.901 22.6261C11.8675 22.7528 11.829 22.8778 11.7855 23.0013L11.7872 23.0028ZM16.5054 25.0573C16.5054 25.0573 16.5088 25.0652 16.5105 25.0684C16.4921 25.0257 16.4653 24.9544 16.5054 25.0573ZM16.5121 25.0747C16.5121 25.0747 16.5171 25.0874 16.5222 25.0921C16.5205 25.089 16.5171 25.0826 16.5121 25.0747ZM16.7949 27.2479C16.7949 27.2479 16.7932 27.2574 16.7915 27.2621C16.7966 27.2178 16.8166 27.126 16.7949 27.2479ZM6.1337 31.944C6.17051 31.9599 6.17553 31.9599 6.1337 31.944V31.944ZM11.4526 12.281C11.4409 12.2873 11.4308 12.2921 11.4275 12.2905C11.4258 12.2905 11.4375 12.2857 11.4526 12.281ZM20.6297 1.54332C20.6297 1.54332 20.6431 1.53857 20.6565 1.53857C20.6481 1.53857 20.6397 1.54174 20.6297 1.54332ZM26.2631 8.44114C26.2631 8.44114 26.2581 8.44114 26.2564 8.43956C26.2564 8.43639 26.2564 8.43323 26.2598 8.43006C26.2598 8.43006 26.2598 8.43481 26.2631 8.44114ZM26.2548 8.43956C26.2414 8.43164 26.2297 8.42531 26.228 8.42373C26.228 8.4174 26.228 8.41107 26.2347 8.40315C26.2347 8.40315 26.2447 8.42056 26.2564 8.43956H26.2548ZM26.1577 8.44589C26.1577 8.44589 26.1694 8.44589 26.1761 8.44589C26.1393 8.45539 25.9954 8.44589 26.1577 8.44589ZM26.2263 8.43164C26.2263 8.43164 26.2263 8.42531 26.2263 8.42373C26.228 8.42373 26.2364 8.43006 26.2481 8.43797C26.2397 8.43639 26.233 8.43481 26.2246 8.43323L26.2263 8.43164ZM26.2581 8.44114C26.2581 8.44114 26.2615 8.44114 26.2631 8.44114V8.44431C26.2615 8.44431 26.2598 8.44272 26.2581 8.44114ZM26.2681 8.44747C26.2681 8.44747 26.2698 8.44747 26.2715 8.44747C26.2715 8.44747 26.2732 8.44747 26.2748 8.44747C26.2832 8.4538 26.2949 8.46172 26.315 8.4728C26.31 8.46963 26.2899 8.45697 26.2681 8.44589V8.44747ZM26.2949 8.96663C26.3033 8.92389 26.3133 8.88591 26.2949 8.96663V8.96663ZM26.2916 8.98087C26.2882 9.00303 26.2866 9.02519 26.2882 9.02677C26.2849 9.02519 26.2882 9.00461 26.2916 8.98087ZM28.7511 16.1319C28.6055 16.1319 28.7092 16.1383 28.7511 16.1319V16.1319Z" fill="#FF717D"/>
<path d="M7.50901 19.4177C7.52744 19.4066 7.54755 19.3924 7.55593 19.3829C7.54755 19.3877 7.54085 19.394 7.53247 19.3987C7.52577 19.4051 7.51906 19.4098 7.50901 19.4177Z" fill="#FF717D"/>
<path d="M19.3415 13.3335C19.2912 13.392 19.2878 13.3968 19.2979 13.3841C19.3113 13.3683 19.3247 13.3509 19.3398 13.335C19.3398 13.335 19.3398 13.335 19.3415 13.3335Z" fill="#FF717D"/>
<path d="M11.1381 24.1835C11.1481 24.1693 11.1598 24.1534 11.1716 24.1408C11.1733 24.1376 11.1766 24.1345 11.1783 24.1313C11.1012 24.1883 11.1079 24.2136 11.1381 24.1835Z" fill="#FF717D"/>
<path d="M10.6177 24.671C10.6177 24.671 10.6261 24.6663 10.6294 24.6631C10.6479 24.6489 10.6696 24.6346 10.6814 24.6267C10.6998 24.6061 10.668 24.6093 10.616 24.6726L10.6177 24.671Z" fill="#FF717D"/>
<path d="M9.10526 25.0009C9.10526 25.0009 9.10861 25.0009 9.11028 25.0009C9.11364 25.0009 9.11699 25.0009 9.12034 25.0009C9.0952 24.9942 9.07174 24.9892 9.05498 24.9892C9.07174 24.9925 9.0885 24.9959 9.10526 25.0009Z" fill="#FF717D"/>
<path d="M28.6926 17.2809C28.6842 17.2889 28.6708 17.3158 28.6607 17.3427C28.6741 17.3158 28.6842 17.2936 28.6909 17.2841C28.6909 17.2841 28.6909 17.2825 28.6909 17.2809H28.6926Z" fill="#FF717D"/>
<path d="M11.3572 2.12662C11.3572 2.12662 11.3907 2.12662 11.4393 2.10986C11.4343 2.10986 11.4293 2.10986 11.4242 2.10986C11.4008 2.11489 11.379 2.12159 11.3555 2.12662H11.3572Z" fill="#FF717D"/>
<path d="M1.74342 26.0876C1.7518 26.1335 1.7652 26.1715 1.73336 26.018C1.73336 26.0306 1.73671 26.0433 1.73839 26.056C1.73839 26.067 1.74174 26.0781 1.74342 26.0876Z" fill="#FF717D"/>
<path d="M28.9301 16.1841C28.9301 16.1841 28.9301 16.1809 28.9301 16.1793C28.9267 16.2173 28.9267 16.2426 28.9301 16.26C28.9301 16.2347 28.9301 16.2094 28.9301 16.1841Z" fill="#FF717D"/>
<path d="M26.2799 8.47903C26.2799 8.47903 26.2749 8.47112 26.2682 8.46162C26.2682 8.45529 26.2648 8.45212 26.2648 8.44738C26.2632 8.44738 26.2632 8.44738 26.2598 8.44421C26.2598 8.44421 26.2581 8.44421 26.2565 8.44421C26.2565 8.44421 26.2565 8.44421 26.2565 8.44263C26.2565 8.44263 26.2565 8.44263 26.2565 8.44421C26.2548 8.44421 26.2531 8.44421 26.2514 8.44421C26.2447 8.44421 26.238 8.44421 26.2313 8.44421C26.238 8.46004 26.2514 8.47112 26.2665 8.47587C26.2716 8.48378 26.2766 8.49169 26.2816 8.49961C26.2799 8.49328 26.2783 8.48695 26.2766 8.47903C26.2783 8.47903 26.2816 8.47903 26.2833 8.47903H26.2799Z" fill="#FF717D"/>
<path d="M26.2916 8.55026C26.2916 8.57242 26.2949 8.59933 26.305 8.61199C26.305 8.60724 26.305 8.60091 26.305 8.59616C26.3016 8.5835 26.2966 8.56767 26.2932 8.55026H26.2916Z" fill="#FF717D"/>
</svg>
