<svg width="192" height="32" viewBox="0 0 192 32" fill="none" xmlns="http://www.w3.org/2000/svg">
<path d="M29.8976 12.1574C29.7726 11.7731 29.5366 11.4344 29.2194 11.1839C28.9022 10.9334 28.5179 10.7824 28.1151 10.7499L20.7401 10.1549L17.8926 3.2687C17.7386 2.89347 17.4765 2.57251 17.1396 2.34662C16.8027 2.12073 16.4063 2.00012 16.0007 2.00012C15.5951 2.00012 15.1987 2.12073 14.8618 2.34662C14.5249 2.57251 14.2628 2.89347 14.1088 3.2687L11.2638 10.1537L3.88508 10.7499C3.48156 10.7841 3.09707 10.9365 2.7798 11.1882C2.46253 11.4399 2.22659 11.7796 2.10153 12.1648C1.97648 12.5499 1.96787 12.9635 2.07679 13.3535C2.18571 13.7436 2.40731 14.0928 2.71383 14.3574L8.33884 19.2112L6.62508 26.4687C6.52924 26.863 6.55271 27.2769 6.69251 27.6578C6.83231 28.0387 7.08214 28.3695 7.41028 28.6082C7.73843 28.8468 8.13009 28.9826 8.53555 28.9983C8.94102 29.014 9.34199 28.9088 9.68759 28.6962L16.0001 24.8112L22.3163 28.6962C22.6621 28.9063 23.0622 29.0094 23.4664 28.9926C23.8706 28.9757 24.2608 28.8397 24.5878 28.6015C24.9149 28.3634 25.1641 28.0338 25.3042 27.6542C25.4443 27.2747 25.469 26.8622 25.3751 26.4687L23.6551 19.2099L29.2801 14.3562C29.5891 14.092 29.8127 13.742 29.9226 13.3506C30.0326 12.9592 30.0239 12.5439 29.8976 12.1574Z" fill="#F5B700"/>
<path d="M69.8976 12.1574C69.7726 11.7731 69.5366 11.4344 69.2194 11.1839C68.9022 10.9334 68.5179 10.7824 68.1151 10.7499L60.7401 10.1549L57.8926 3.2687C57.7386 2.89347 57.4765 2.57251 57.1396 2.34662C56.8027 2.12073 56.4063 2.00012 56.0007 2.00012C55.5951 2.00012 55.1987 2.12073 54.8618 2.34662C54.5249 2.57251 54.2628 2.89347 54.1088 3.2687L51.2638 10.1537L43.8851 10.7499C43.4816 10.7841 43.0971 10.9365 42.7798 11.1882C42.4625 11.4399 42.2266 11.7796 42.1015 12.1648C41.9765 12.5499 41.9679 12.9635 42.0768 13.3535C42.1857 13.7436 42.4073 14.0928 42.7138 14.3574L48.3388 19.2112L46.6251 26.4687C46.5292 26.863 46.5527 27.2769 46.6925 27.6578C46.8323 28.0387 47.0821 28.3695 47.4103 28.6082C47.7384 28.8468 48.1301 28.9826 48.5356 28.9983C48.941 29.014 49.342 28.9088 49.6876 28.6962L56.0001 24.8112L62.3163 28.6962C62.6621 28.9063 63.0622 29.0094 63.4664 28.9926C63.8706 28.9757 64.2608 28.8397 64.5878 28.6015C64.9149 28.3634 65.1641 28.0338 65.3042 27.6542C65.4443 27.2747 65.469 26.8622 65.3751 26.4687L63.6551 19.2099L69.2801 14.3562C69.5891 14.092 69.8127 13.742 69.9226 13.3506C70.0326 12.9592 70.0239 12.5439 69.8976 12.1574Z" fill="#F5B700"/>
<path d="M109.898 12.1574C109.773 11.7731 109.537 11.4344 109.219 11.1839C108.902 10.9334 108.518 10.7824 108.115 10.7499L100.74 10.1549L97.8926 3.2687C97.7386 2.89347 97.4765 2.57251 97.1396 2.34662C96.8027 2.12073 96.4063 2.00012 96.0007 2.00012C95.5951 2.00012 95.1987 2.12073 94.8618 2.34662C94.5249 2.57251 94.2628 2.89347 94.1088 3.2687L91.2638 10.1537L83.8851 10.7499C83.4816 10.7841 83.0971 10.9365 82.7798 11.1882C82.4625 11.4399 82.2266 11.7796 82.1015 12.1648C81.9765 12.5499 81.9679 12.9635 82.0768 13.3535C82.1857 13.7436 82.4073 14.0928 82.7138 14.3574L88.3388 19.2112L86.6251 26.4687C86.5292 26.863 86.5527 27.2769 86.6925 27.6578C86.8323 28.0387 87.0821 28.3695 87.4103 28.6082C87.7384 28.8468 88.1301 28.9826 88.5356 28.9983C88.941 29.014 89.342 28.9088 89.6876 28.6962L96.0001 24.8112L102.316 28.6962C102.662 28.9063 103.062 29.0094 103.466 28.9926C103.871 28.9757 104.261 28.8397 104.588 28.6015C104.915 28.3634 105.164 28.0338 105.304 27.6542C105.444 27.2747 105.469 26.8622 105.375 26.4687L103.655 19.2099L109.28 14.3562C109.589 14.092 109.813 13.742 109.923 13.3506C110.033 12.9592 110.024 12.5439 109.898 12.1574Z" fill="#F5B700"/>
<path d="M149.898 12.1574C149.773 11.7731 149.537 11.4344 149.219 11.1839C148.902 10.9334 148.518 10.7824 148.115 10.7499L140.74 10.1549L137.893 3.2687C137.739 2.89347 137.476 2.57251 137.14 2.34662C136.803 2.12073 136.406 2.00012 136.001 2.00012C135.595 2.00012 135.199 2.12073 134.862 2.34662C134.525 2.57251 134.263 2.89347 134.109 3.2687L131.264 10.1537L123.885 10.7499C123.482 10.7841 123.097 10.9365 122.78 11.1882C122.463 11.4399 122.227 11.7796 122.102 12.1648C121.976 12.5499 121.968 12.9635 122.077 13.3535C122.186 13.7436 122.407 14.0928 122.714 14.3574L128.339 19.2112L126.625 26.4687C126.529 26.863 126.553 27.2769 126.693 27.6578C126.832 28.0387 127.082 28.3695 127.41 28.6082C127.738 28.8468 128.13 28.9826 128.536 28.9983C128.941 29.014 129.342 28.9088 129.688 28.6962L136 24.8112L142.316 28.6962C142.662 28.9063 143.062 29.0094 143.466 28.9926C143.871 28.9757 144.261 28.8397 144.588 28.6015C144.915 28.3634 145.164 28.0338 145.304 27.6542C145.444 27.2747 145.469 26.8622 145.375 26.4687L143.655 19.2099L149.28 14.3562C149.589 14.092 149.813 13.742 149.923 13.3506C150.033 12.9592 150.024 12.5439 149.898 12.1574Z" fill="#F5B700"/>
<path d="M189.898 12.1574C189.773 11.7731 189.537 11.4344 189.219 11.1839C188.902 10.9334 188.518 10.7824 188.115 10.7499L180.74 10.1549L177.893 3.2687C177.739 2.89347 177.476 2.57251 177.14 2.34662C176.803 2.12073 176.406 2.00012 176.001 2.00012C175.595 2.00012 175.199 2.12073 174.862 2.34662C174.525 2.57251 174.263 2.89347 174.109 3.2687L171.264 10.1537L163.885 10.7499C163.482 10.7841 163.097 10.9365 162.78 11.1882C162.463 11.4399 162.227 11.7796 162.102 12.1648C161.976 12.5499 161.968 12.9635 162.077 13.3535C162.186 13.7436 162.407 14.0928 162.714 14.3575L168.339 19.2112L166.625 26.4687C166.529 26.863 166.553 27.2769 166.693 27.6578C166.832 28.0387 167.082 28.3695 167.41 28.6082C167.738 28.8468 168.13 28.9826 168.536 28.9983C168.941 29.014 169.342 28.9088 169.688 28.6962L176 24.8112L182.316 28.6962C182.662 28.9063 183.062 29.0094 183.466 28.9926C183.871 28.9757 184.261 28.8397 184.588 28.6015C184.915 28.3634 185.164 28.0338 185.304 27.6542C185.444 27.2747 185.469 26.8622 185.375 26.4687L183.655 19.2099L189.28 14.3562C189.589 14.092 189.813 13.742 189.923 13.3506C190.033 12.9592 190.024 12.5439 189.898 12.1574ZM187.98 12.8412L181.893 18.0912C181.754 18.2109 181.65 18.3664 181.594 18.5407C181.538 18.7151 181.53 18.9016 181.573 19.08L183.433 26.93C183.437 26.9408 183.438 26.953 183.434 26.9642C183.43 26.9754 183.422 26.9846 183.411 26.99C183.389 27.0075 183.383 27.0037 183.364 26.99L176.524 22.7837C176.366 22.6868 176.185 22.6356 176 22.6356C175.815 22.6356 175.634 22.6868 175.476 22.7837L168.636 26.9925C168.618 27.0037 168.613 27.0075 168.589 26.9925C168.578 26.9871 168.57 26.9779 168.566 26.9667C168.562 26.9555 168.563 26.9433 168.568 26.9325L170.428 19.0825C170.47 18.9041 170.463 18.7176 170.406 18.5432C170.35 18.3689 170.246 18.2134 170.108 18.0937L164.02 12.8437C164.005 12.8312 163.991 12.8199 164.004 12.7812C164.016 12.7424 164.026 12.7474 164.045 12.7449L172.035 12.1C172.218 12.0842 172.394 12.0183 172.542 11.9093C172.69 11.8004 172.805 11.6527 172.875 11.4824L175.953 4.0312C175.963 4.00995 175.966 3.99995 175.996 3.99995C176.026 3.99995 176.03 4.00995 176.04 4.0312L179.125 11.4824C179.195 11.6527 179.311 11.8003 179.46 11.9088C179.609 12.0173 179.785 12.0826 179.969 12.0974L187.959 12.7425C187.978 12.7425 187.989 12.7425 188 12.7787C188.011 12.815 188 12.8287 187.98 12.8412Z" fill="#C7C7CC"/>
<path d="M189.898 12.1574C189.773 11.7731 189.537 11.4344 189.219 11.1839C188.902 10.9334 188.518 10.7824 188.115 10.7499L180.74 10.1549L177.893 3.2687C177.739 2.89347 177.476 2.57251 177.14 2.34662C176.803 2.12073 176.406 2.00012 176.001 2.00012C175.595 2.00012 175.199 2.12073 174.862 2.34662C174.525 2.57251 174.263 2.89347 174.109 3.2687L171.264 10.1537L163.885 10.7499C163.482 10.7841 163.097 10.9365 162.78 11.1882C162.463 11.4399 162.227 11.7796 162.102 12.1648C161.976 12.5499 161.968 12.9635 162.077 13.3535C162.186 13.7436 162.407 14.0928 162.714 14.3574L168.339 19.2112L166.625 26.4687C166.529 26.863 166.553 27.2769 166.693 27.6578C166.832 28.0387 167.082 28.3695 167.41 28.6082C167.738 28.8468 168.13 28.9826 168.536 28.9983C168.941 29.014 169.342 28.9088 169.688 28.6962L176 24.8112L182.316 28.6962C182.662 28.9063 183.062 29.0094 183.466 28.9926C183.871 28.9757 184.261 28.8397 184.588 28.6015C184.915 28.3634 185.164 28.0338 185.304 27.6542C185.444 27.2747 185.469 26.8622 185.375 26.4687L183.655 19.2099L189.28 14.3562C189.589 14.092 189.813 13.742 189.923 13.3506C190.033 12.9591 190.024 12.5439 189.898 12.1574Z" fill="#F5B700"/>
</svg>
