<svg width="192" height="32" viewBox="0 0 192 32" fill="none" xmlns="http://www.w3.org/2000/svg">
<path d="M29.8976 12.1575C29.7726 11.7732 29.5366 11.4344 29.2194 11.1839C28.9022 10.9335 28.5179 10.7825 28.1151 10.75L20.7401 10.155L17.8926 3.26874C17.7386 2.89352 17.4765 2.57255 17.1396 2.34667C16.8027 2.12078 16.4063 2.00017 16.0007 2.00017C15.5951 2.00017 15.1987 2.12078 14.8618 2.34667C14.5249 2.57255 14.2628 2.89352 14.1088 3.26874L11.2638 10.1537L3.88508 10.75C3.48156 10.7841 3.09707 10.9366 2.7798 11.1883C2.46253 11.4399 2.22659 11.7796 2.10153 12.1648C1.97648 12.55 1.96787 12.9635 2.07679 13.3536C2.18571 13.7436 2.40731 14.0928 2.71383 14.3575L8.33883 19.2112L6.62508 26.4687C6.52924 26.863 6.55271 27.2769 6.69251 27.6578C6.83231 28.0387 7.08214 28.3695 7.41028 28.6082C7.73843 28.8469 8.13009 28.9827 8.53555 28.9984C8.94102 29.014 9.34199 28.9089 9.68758 28.6962L16.0001 24.8112L22.3163 28.6962C22.662 28.9064 23.0622 29.0095 23.4664 28.9926C23.8706 28.9758 24.2608 28.8397 24.5878 28.6016C24.9149 28.3634 25.1641 28.0338 25.3042 27.6543C25.4443 27.2748 25.469 26.8623 25.3751 26.4687L23.6551 19.21L29.2801 14.3562C29.5891 14.092 29.8127 13.742 29.9226 13.3506C30.0326 12.9592 30.0238 12.544 29.8976 12.1575ZM27.9801 12.8412L21.8926 18.0912C21.7538 18.2109 21.6505 18.3664 21.5941 18.5408C21.5376 18.7152 21.5302 18.9017 21.5726 19.08L23.4326 26.93C23.4374 26.9408 23.4379 26.9531 23.4339 26.9642C23.43 26.9754 23.4219 26.9846 23.4113 26.99C23.3888 27.0075 23.3826 27.0037 23.3638 26.99L16.5238 22.7837C16.3663 22.6869 16.185 22.6356 16.0001 22.6356C15.8152 22.6356 15.6339 22.6869 15.4763 22.7837L8.63633 26.9925C8.61758 27.0037 8.61258 27.0075 8.58883 26.9925C8.57828 26.9871 8.5702 26.9779 8.56625 26.9667C8.56229 26.9556 8.56277 26.9433 8.56758 26.9325L10.4276 19.0825C10.47 18.9042 10.4625 18.7177 10.4061 18.5433C10.3497 18.3689 10.2464 18.2134 10.1076 18.0937L4.02008 12.8437C4.00508 12.8312 3.99133 12.82 4.00383 12.7812C4.01633 12.7425 4.02633 12.7475 4.04508 12.745L12.0351 12.1C12.2183 12.0843 12.3937 12.0183 12.5419 11.9094C12.6901 11.8004 12.8054 11.6527 12.8751 11.4825L15.9526 4.03124C15.9626 4.00999 15.9663 3.99999 15.9963 3.99999C16.0263 3.99999 16.0301 4.00999 16.0401 4.03124L19.1251 11.4825C19.1954 11.6528 19.3114 11.8003 19.4603 11.9089C19.6092 12.0174 19.7852 12.0827 19.9688 12.0975L27.9588 12.7425C27.9776 12.7425 27.9888 12.7425 28.0001 12.7787C28.0113 12.815 28.0001 12.8287 27.9801 12.8412Z" fill="#C7C7CC"/>
<path d="M69.8976 12.1575C69.7726 11.7732 69.5366 11.4344 69.2194 11.1839C68.9022 10.9335 68.5179 10.7825 68.1151 10.75L60.7401 10.155L57.8926 3.26874C57.7386 2.89352 57.4765 2.57255 57.1396 2.34667C56.8027 2.12078 56.4063 2.00017 56.0007 2.00017C55.5951 2.00017 55.1987 2.12078 54.8618 2.34667C54.5249 2.57255 54.2628 2.89352 54.1088 3.26874L51.2638 10.1537L43.8851 10.75C43.4816 10.7841 43.0971 10.9366 42.7798 11.1883C42.4625 11.4399 42.2266 11.7796 42.1015 12.1648C41.9765 12.55 41.9679 12.9635 42.0768 13.3536C42.1857 13.7436 42.4073 14.0928 42.7138 14.3575L48.3388 19.2112L46.6251 26.4687C46.5292 26.863 46.5527 27.2769 46.6925 27.6578C46.8323 28.0387 47.0821 28.3695 47.4103 28.6082C47.7384 28.8469 48.1301 28.9827 48.5356 28.9984C48.941 29.014 49.342 28.9089 49.6876 28.6962L56.0001 24.8112L62.3163 28.6962C62.662 28.9064 63.0622 29.0095 63.4664 28.9926C63.8706 28.9758 64.2608 28.8397 64.5878 28.6016C64.9149 28.3634 65.1641 28.0338 65.3042 27.6543C65.4443 27.2748 65.469 26.8623 65.3751 26.4687L63.6551 19.21L69.2801 14.3562C69.5891 14.092 69.8127 13.742 69.9226 13.3506C70.0326 12.9592 70.0238 12.544 69.8976 12.1575ZM67.9801 12.8412L61.8926 18.0912C61.7538 18.2109 61.6505 18.3664 61.5941 18.5408C61.5376 18.7152 61.5302 18.9017 61.5726 19.08L63.4326 26.93C63.4374 26.9408 63.4379 26.9531 63.4339 26.9642C63.43 26.9754 63.4219 26.9846 63.4113 26.99C63.3888 27.0075 63.3826 27.0037 63.3638 26.99L56.5238 22.7837C56.3663 22.6869 56.185 22.6356 56.0001 22.6356C55.8152 22.6356 55.6339 22.6869 55.4763 22.7837L48.6363 26.9925C48.6176 27.0037 48.6126 27.0075 48.5888 26.9925C48.5783 26.9871 48.5702 26.9779 48.5662 26.9667C48.5623 26.9556 48.5628 26.9433 48.5676 26.9325L50.4276 19.0825C50.47 18.9042 50.4625 18.7177 50.4061 18.5433C50.3497 18.3689 50.2464 18.2134 50.1076 18.0937L44.0201 12.8437C44.0051 12.8312 43.9913 12.82 44.0038 12.7812C44.0163 12.7425 44.0263 12.7475 44.0451 12.745L52.0351 12.1C52.2183 12.0843 52.3937 12.0183 52.5419 11.9094C52.6901 11.8004 52.8054 11.6527 52.8751 11.4825L55.9526 4.03124C55.9626 4.00999 55.9663 3.99999 55.9963 3.99999C56.0263 3.99999 56.0301 4.00999 56.0401 4.03124L59.1251 11.4825C59.1954 11.6528 59.3114 11.8003 59.4603 11.9089C59.6092 12.0174 59.7852 12.0827 59.9688 12.0975L67.9588 12.7425C67.9776 12.7425 67.9888 12.7425 68.0001 12.7787C68.0113 12.815 68.0001 12.8287 67.9801 12.8412Z" fill="#C7C7CC"/>
<path d="M109.898 12.1575C109.773 11.7732 109.537 11.4344 109.219 11.1839C108.902 10.9335 108.518 10.7825 108.115 10.75L100.74 10.155L97.8926 3.26874C97.7386 2.89352 97.4765 2.57255 97.1396 2.34667C96.8027 2.12078 96.4063 2.00017 96.0007 2.00017C95.5951 2.00017 95.1987 2.12078 94.8618 2.34667C94.5249 2.57255 94.2628 2.89352 94.1088 3.26874L91.2638 10.1537L83.8851 10.75C83.4816 10.7841 83.0971 10.9366 82.7798 11.1883C82.4625 11.4399 82.2266 11.7796 82.1015 12.1648C81.9765 12.55 81.9679 12.9635 82.0768 13.3536C82.1857 13.7436 82.4073 14.0928 82.7138 14.3575L88.3388 19.2112L86.6251 26.4687C86.5292 26.863 86.5527 27.2769 86.6925 27.6578C86.8323 28.0387 87.0821 28.3695 87.4103 28.6082C87.7384 28.8469 88.1301 28.9827 88.5356 28.9984C88.941 29.014 89.342 28.9089 89.6876 28.6962L96.0001 24.8112L102.316 28.6962C102.662 28.9064 103.062 29.0095 103.466 28.9926C103.871 28.9758 104.261 28.8397 104.588 28.6016C104.915 28.3634 105.164 28.0338 105.304 27.6543C105.444 27.2748 105.469 26.8623 105.375 26.4687L103.655 19.21L109.28 14.3562C109.589 14.092 109.813 13.742 109.923 13.3506C110.033 12.9592 110.024 12.544 109.898 12.1575ZM107.98 12.8412L101.893 18.0912C101.754 18.2109 101.65 18.3664 101.594 18.5408C101.538 18.7152 101.53 18.9017 101.573 19.08L103.433 26.93C103.437 26.9408 103.438 26.9531 103.434 26.9642C103.43 26.9754 103.422 26.9846 103.411 26.99C103.389 27.0075 103.383 27.0037 103.364 26.99L96.5238 22.7837C96.3663 22.6869 96.185 22.6356 96.0001 22.6356C95.8152 22.6356 95.6339 22.6869 95.4763 22.7837L88.6363 26.9925C88.6176 27.0037 88.6126 27.0075 88.5888 26.9925C88.5783 26.9871 88.5702 26.9779 88.5662 26.9667C88.5623 26.9556 88.5628 26.9433 88.5676 26.9325L90.4276 19.0825C90.47 18.9042 90.4625 18.7177 90.4061 18.5433C90.3497 18.3689 90.2464 18.2134 90.1076 18.0937L84.0201 12.8437C84.0051 12.8312 83.9913 12.82 84.0038 12.7812C84.0163 12.7425 84.0263 12.7475 84.0451 12.745L92.0351 12.1C92.2183 12.0843 92.3937 12.0183 92.5419 11.9094C92.6901 11.8004 92.8054 11.6527 92.8751 11.4825L95.9526 4.03124C95.9626 4.00999 95.9663 3.99999 95.9963 3.99999C96.0263 3.99999 96.0301 4.00999 96.0401 4.03124L99.1251 11.4825C99.1954 11.6528 99.3114 11.8003 99.4603 11.9089C99.6092 12.0174 99.7852 12.0827 99.9688 12.0975L107.959 12.7425C107.978 12.7425 107.989 12.7425 108 12.7787C108.011 12.815 108 12.8287 107.98 12.8412Z" fill="#C7C7CC"/>
<path d="M149.898 12.1575C149.773 11.7732 149.537 11.4344 149.219 11.1839C148.902 10.9335 148.518 10.7825 148.115 10.75L140.74 10.155L137.893 3.26874C137.739 2.89352 137.476 2.57255 137.14 2.34667C136.803 2.12078 136.406 2.00017 136.001 2.00017C135.595 2.00017 135.199 2.12078 134.862 2.34667C134.525 2.57255 134.263 2.89352 134.109 3.26874L131.264 10.1537L123.885 10.75C123.482 10.7841 123.097 10.9366 122.78 11.1883C122.463 11.4399 122.227 11.7796 122.102 12.1648C121.976 12.55 121.968 12.9635 122.077 13.3536C122.186 13.7436 122.407 14.0928 122.714 14.3575L128.339 19.2112L126.625 26.4687C126.529 26.863 126.553 27.2769 126.693 27.6578C126.832 28.0387 127.082 28.3695 127.41 28.6082C127.738 28.8469 128.13 28.9827 128.536 28.9984C128.941 29.014 129.342 28.9089 129.688 28.6962L136 24.8112L142.316 28.6962C142.662 28.9064 143.062 29.0095 143.466 28.9926C143.871 28.9758 144.261 28.8397 144.588 28.6016C144.915 28.3634 145.164 28.0338 145.304 27.6543C145.444 27.2748 145.469 26.8623 145.375 26.4687L143.655 19.21L149.28 14.3562C149.589 14.092 149.813 13.742 149.923 13.3506C150.033 12.9592 150.024 12.544 149.898 12.1575ZM147.98 12.8412L141.893 18.0912C141.754 18.2109 141.65 18.3664 141.594 18.5408C141.538 18.7152 141.53 18.9017 141.573 19.08L143.433 26.93C143.437 26.9408 143.438 26.9531 143.434 26.9642C143.43 26.9754 143.422 26.9846 143.411 26.99C143.389 27.0075 143.383 27.0037 143.364 26.99L136.524 22.7837C136.366 22.6869 136.185 22.6356 136 22.6356C135.815 22.6356 135.634 22.6869 135.476 22.7837L128.636 26.9925C128.618 27.0037 128.613 27.0075 128.589 26.9925C128.578 26.9871 128.57 26.9779 128.566 26.9667C128.562 26.9556 128.563 26.9433 128.568 26.9325L130.428 19.0825C130.47 18.9042 130.463 18.7177 130.406 18.5433C130.35 18.3689 130.246 18.2134 130.108 18.0937L124.02 12.8437C124.005 12.8312 123.991 12.82 124.004 12.7812C124.016 12.7425 124.026 12.7475 124.045 12.745L132.035 12.1C132.218 12.0843 132.394 12.0183 132.542 11.9094C132.69 11.8004 132.805 11.6527 132.875 11.4825L135.953 4.03124C135.963 4.00999 135.966 3.99999 135.996 3.99999C136.026 3.99999 136.03 4.00999 136.04 4.03124L139.125 11.4825C139.195 11.6528 139.311 11.8003 139.46 11.9089C139.609 12.0174 139.785 12.0827 139.969 12.0975L147.959 12.7425C147.978 12.7425 147.989 12.7425 148 12.7787C148.011 12.815 148 12.8287 147.98 12.8412Z" fill="#C7C7CC"/>
<path d="M189.898 12.1575C189.773 11.7732 189.537 11.4344 189.219 11.1839C188.902 10.9335 188.518 10.7825 188.115 10.75L180.74 10.155L177.893 3.26874C177.739 2.89352 177.476 2.57255 177.14 2.34667C176.803 2.12078 176.406 2.00017 176.001 2.00017C175.595 2.00017 175.199 2.12078 174.862 2.34667C174.525 2.57255 174.263 2.89352 174.109 3.26874L171.264 10.1537L163.885 10.75C163.482 10.7841 163.097 10.9366 162.78 11.1883C162.463 11.4399 162.227 11.7796 162.102 12.1648C161.976 12.55 161.968 12.9635 162.077 13.3536C162.186 13.7436 162.407 14.0928 162.714 14.3575L168.339 19.2112L166.625 26.4687C166.529 26.863 166.553 27.2769 166.693 27.6578C166.832 28.0387 167.082 28.3695 167.41 28.6082C167.738 28.8469 168.13 28.9827 168.536 28.9984C168.941 29.014 169.342 28.9089 169.688 28.6962L176 24.8112L182.316 28.6962C182.662 28.9064 183.062 29.0095 183.466 28.9926C183.871 28.9758 184.261 28.8397 184.588 28.6016C184.915 28.3634 185.164 28.0338 185.304 27.6543C185.444 27.2748 185.469 26.8623 185.375 26.4687L183.655 19.21L189.28 14.3562C189.589 14.092 189.813 13.742 189.923 13.3506C190.033 12.9592 190.024 12.544 189.898 12.1575ZM187.98 12.8412L181.893 18.0912C181.754 18.2109 181.65 18.3664 181.594 18.5408C181.538 18.7152 181.53 18.9017 181.573 19.08L183.433 26.93C183.437 26.9408 183.438 26.9531 183.434 26.9642C183.43 26.9754 183.422 26.9846 183.411 26.99C183.389 27.0075 183.383 27.0037 183.364 26.99L176.524 22.7837C176.366 22.6869 176.185 22.6356 176 22.6356C175.815 22.6356 175.634 22.6869 175.476 22.7837L168.636 26.9925C168.618 27.0037 168.613 27.0075 168.589 26.9925C168.578 26.9871 168.57 26.9779 168.566 26.9667C168.562 26.9556 168.563 26.9433 168.568 26.9325L170.428 19.0825C170.47 18.9042 170.463 18.7177 170.406 18.5433C170.35 18.3689 170.246 18.2134 170.108 18.0937L164.02 12.8437C164.005 12.8312 163.991 12.82 164.004 12.7812C164.016 12.7425 164.026 12.7475 164.045 12.745L172.035 12.1C172.218 12.0843 172.394 12.0183 172.542 11.9094C172.69 11.8004 172.805 11.6527 172.875 11.4825L175.953 4.03124C175.963 4.00999 175.966 3.99999 175.996 3.99999C176.026 3.99999 176.03 4.00999 176.04 4.03124L179.125 11.4825C179.195 11.6528 179.311 11.8003 179.46 11.9089C179.609 12.0174 179.785 12.0827 179.969 12.0975L187.959 12.7425C187.978 12.7425 187.989 12.7425 188 12.7787C188.011 12.815 188 12.8287 187.98 12.8412Z" fill="#C7C7CC"/>
</svg>
