<svg width="76" height="12" viewBox="0 0 76 12" fill="none" xmlns="http://www.w3.org/2000/svg">
<path d="M10.9823 5.38355L8.87297 7.2037L9.51563 9.92574C9.55108 10.0735 9.54195 10.2285 9.48939 10.371C9.43682 10.5136 9.34318 10.6374 9.22028 10.7268C9.09739 10.8162 8.95077 10.8672 8.79893 10.8732C8.64709 10.8793 8.49685 10.8403 8.36719 10.761L6 9.30417L3.63141 10.761C3.50176 10.8398 3.35171 10.8785 3.20013 10.8722C3.04855 10.8659 2.90223 10.8148 2.7796 10.7255C2.65696 10.6362 2.56349 10.5126 2.51096 10.3703C2.45842 10.228 2.44917 10.0733 2.48438 9.92574L3.12938 7.2037L1.02 5.38355C0.905297 5.28441 0.822341 5.15368 0.781493 5.00768C0.740645 4.86168 0.743715 4.70688 0.790321 4.56261C0.836926 4.41835 0.925001 4.29101 1.04355 4.1965C1.16209 4.10199 1.30585 4.0445 1.45688 4.0312L4.2225 3.80808L5.28938 1.2262C5.34712 1.08549 5.44541 0.965133 5.57174 0.880425C5.69807 0.795717 5.84673 0.750488 5.99883 0.750488C6.15093 0.750488 6.29959 0.795717 6.42592 0.880425C6.55225 0.965133 6.65053 1.08549 6.70828 1.2262L7.77469 3.80808L10.5403 4.0312C10.6916 4.044 10.8358 4.10117 10.9548 4.19555C11.0738 4.28993 11.1622 4.41732 11.2091 4.56176C11.256 4.7062 11.2593 4.86127 11.2184 5.00754C11.1776 5.15381 11.0945 5.28477 10.9795 5.38402L10.9823 5.38355Z" fill="#F5B700"/>
<path d="M26.9823 5.38355L24.873 7.2037L25.5156 9.92574C25.5511 10.0735 25.542 10.2285 25.4894 10.371C25.4368 10.5136 25.3432 10.6374 25.2203 10.7268C25.0974 10.8162 24.9508 10.8672 24.7989 10.8732C24.6471 10.8793 24.4968 10.8403 24.3672 10.761L22 9.30417L19.6314 10.761C19.5018 10.8398 19.3517 10.8785 19.2001 10.8722C19.0486 10.8659 18.9022 10.8148 18.7796 10.7255C18.657 10.6362 18.5635 10.5126 18.511 10.3703C18.4584 10.228 18.4492 10.0733 18.4844 9.92574L19.1294 7.2037L17.02 5.38355C16.9053 5.28441 16.8223 5.15368 16.7815 5.00768C16.7406 4.86168 16.7437 4.70688 16.7903 4.56261C16.8369 4.41835 16.925 4.29101 17.0435 4.1965C17.1621 4.10199 17.3059 4.0445 17.4569 4.0312L20.2225 3.80808L21.2894 1.2262C21.3471 1.08549 21.4454 0.965133 21.5717 0.880425C21.6981 0.795717 21.8467 0.750488 21.9988 0.750488C22.1509 0.750488 22.2996 0.795717 22.4259 0.880425C22.5522 0.965133 22.6505 1.08549 22.7083 1.2262L23.7747 3.80808L26.5403 4.0312C26.6916 4.044 26.8358 4.10117 26.9548 4.19555C27.0738 4.28993 27.1622 4.41732 27.2091 4.56176C27.256 4.7062 27.2593 4.86127 27.2184 5.00754C27.1776 5.15381 27.0945 5.28477 26.9795 5.38402L26.9823 5.38355Z" fill="#F5B700"/>
<path d="M42.9823 5.38355L40.873 7.2037L41.5156 9.92574C41.5511 10.0735 41.542 10.2285 41.4894 10.371C41.4368 10.5136 41.3432 10.6374 41.2203 10.7268C41.0974 10.8162 40.9508 10.8672 40.7989 10.8732C40.6471 10.8793 40.4968 10.8403 40.3672 10.761L38 9.30417L35.6314 10.761C35.5018 10.8398 35.3517 10.8785 35.2001 10.8722C35.0486 10.8659 34.9022 10.8148 34.7796 10.7255C34.657 10.6362 34.5635 10.5126 34.511 10.3703C34.4584 10.228 34.4492 10.0733 34.4844 9.92574L35.1294 7.2037L33.02 5.38355C32.9053 5.28441 32.8223 5.15368 32.7815 5.00768C32.7406 4.86168 32.7437 4.70688 32.7903 4.56261C32.8369 4.41835 32.925 4.29101 33.0435 4.1965C33.1621 4.10199 33.3059 4.0445 33.4569 4.0312L36.2225 3.80808L37.2894 1.2262C37.3471 1.08549 37.4454 0.965133 37.5717 0.880425C37.6981 0.795717 37.8467 0.750488 37.9988 0.750488C38.1509 0.750488 38.2996 0.795717 38.4259 0.880425C38.5522 0.965133 38.6505 1.08549 38.7083 1.2262L39.7747 3.80808L42.5403 4.0312C42.6916 4.044 42.8358 4.10117 42.9548 4.19555C43.0738 4.28993 43.1622 4.41732 43.2091 4.56176C43.256 4.7062 43.2593 4.86127 43.2184 5.00754C43.1776 5.15381 43.0945 5.28477 42.9795 5.38402L42.9823 5.38355Z" fill="#F5B700"/>
<path d="M58.9823 5.38355L56.873 7.2037L57.5156 9.92574C57.5511 10.0735 57.542 10.2285 57.4894 10.371C57.4368 10.5136 57.3432 10.6374 57.2203 10.7268C57.0974 10.8162 56.9508 10.8672 56.7989 10.8732C56.6471 10.8793 56.4968 10.8403 56.3672 10.761L54 9.30417L51.6314 10.761C51.5018 10.8398 51.3517 10.8785 51.2001 10.8722C51.0486 10.8659 50.9022 10.8148 50.7796 10.7255C50.657 10.6362 50.5635 10.5126 50.511 10.3703C50.4584 10.228 50.4492 10.0733 50.4844 9.92574L51.1294 7.2037L49.02 5.38355C48.9053 5.28441 48.8223 5.15368 48.7815 5.00768C48.7406 4.86168 48.7437 4.70688 48.7903 4.56261C48.8369 4.41835 48.925 4.29101 49.0435 4.1965C49.1621 4.10199 49.3059 4.0445 49.4569 4.0312L52.2225 3.80808L53.2894 1.2262C53.3471 1.08549 53.4454 0.965133 53.5717 0.880425C53.6981 0.795717 53.8467 0.750488 53.9988 0.750488C54.1509 0.750488 54.2996 0.795717 54.4259 0.880425C54.5522 0.965133 54.6505 1.08549 54.7083 1.2262L55.7747 3.80808L58.5403 4.0312C58.6916 4.044 58.8358 4.10117 58.9548 4.19555C59.0738 4.28993 59.1622 4.41732 59.2091 4.56176C59.256 4.7062 59.2593 4.86127 59.2184 5.00754C59.1776 5.15381 59.0945 5.28477 58.9795 5.38402L58.9823 5.38355Z" fill="#F5B700"/>
<path d="M74.9823 5.38355L72.873 7.2037L73.5156 9.92574C73.5511 10.0735 73.542 10.2285 73.4894 10.371C73.4368 10.5136 73.3432 10.6374 73.2203 10.7268C73.0974 10.8162 72.9508 10.8672 72.7989 10.8732C72.6471 10.8793 72.4968 10.8403 72.3672 10.761L70 9.30417L67.6314 10.761C67.5018 10.8398 67.3517 10.8785 67.2001 10.8722C67.0486 10.8659 66.9022 10.8148 66.7796 10.7255C66.657 10.6362 66.5635 10.5126 66.511 10.3703C66.4584 10.228 66.4492 10.0733 66.4844 9.92574L67.1294 7.2037L65.02 5.38355C64.9053 5.28441 64.8223 5.15368 64.7815 5.00768C64.7406 4.86168 64.7437 4.70688 64.7903 4.56261C64.8369 4.41835 64.925 4.29101 65.0435 4.1965C65.1621 4.10199 65.3059 4.0445 65.4569 4.0312L68.2225 3.80808L69.2894 1.2262C69.3471 1.08549 69.4454 0.965133 69.5717 0.880425C69.6981 0.795717 69.8467 0.750488 69.9988 0.750488C70.1509 0.750488 70.2996 0.795717 70.4259 0.880425C70.5522 0.965133 70.6505 1.08549 70.7083 1.2262L71.7747 3.80808L74.5403 4.0312C74.6916 4.044 74.8358 4.10117 74.9548 4.19555C75.0738 4.28993 75.1622 4.41732 75.2091 4.56176C75.256 4.7062 75.2593 4.86127 75.2184 5.00754C75.1776 5.15381 75.0945 5.28477 74.9795 5.38402L74.9823 5.38355Z" fill="#F5B700"/>
</svg>
