<svg width="44" height="44" viewBox="0 0 44 44" fill="none" xmlns="http://www.w3.org/2000/svg">
<g clip-path="url(#clip0_5421_61772)">
<path d="M22 0C16.1666 0 10.5669 2.31928 6.44531 6.44359C2.31953 10.5696 0.0011806 16.1651 0 22C0 27.8324 2.32031 33.4321 6.44531 37.5564C10.5669 41.6807 16.1666 44 22 44C27.8334 44 33.4331 41.6807 37.5547 37.5564C41.6797 33.4321 44 27.8324 44 22C44 16.1676 41.6797 10.5679 37.5547 6.44359C33.4331 2.31928 27.8334 0 22 0Z" fill="url(#paint0_linear_5421_61772)"/>
<path d="M9.95842 21.7676C16.3728 18.9736 20.649 17.1315 22.7872 16.2415C28.899 13.7001 30.1675 13.2587 30.9959 13.2438C31.1781 13.2409 31.5837 13.2859 31.8484 13.4999C32.0684 13.6803 32.1303 13.9244 32.1612 14.0958C32.1887 14.267 32.2265 14.6571 32.1956 14.9617C31.8656 18.4404 30.4322 26.8822 29.7034 30.7786C29.3975 32.4273 28.789 32.98 28.2012 33.034C26.9225 33.1515 25.9531 32.1897 24.7156 31.3788C22.7803 30.1094 21.6872 29.3194 19.8069 28.0809C17.6344 26.6495 19.0437 25.8627 20.2812 24.577C20.6044 24.2405 26.235 19.1204 26.3415 18.656C26.3553 18.5979 26.369 18.3813 26.2384 18.2672C26.1112 18.1527 25.9222 18.1919 25.7847 18.2228C25.5887 18.2668 22.4984 20.3115 16.5034 24.3564C15.6269 24.9593 14.8328 25.2532 14.1178 25.2377C13.334 25.2209 11.8215 24.7936 10.6975 24.4285C9.32248 23.9806 8.22592 23.7438 8.32217 22.9831C8.3703 22.5871 8.91686 22.1818 9.95842 21.7676Z" fill="white"/>
</g>
<defs>
<linearGradient id="paint0_linear_5421_61772" x1="2200" y1="0" x2="2200" y2="4400" gradientUnits="userSpaceOnUse">
<stop stop-color="#2AABEE"/>
<stop offset="1" stop-color="#229ED9"/>
</linearGradient>
<clipPath id="clip0_5421_61772">
<rect width="44" height="44" fill="white"/>
</clipPath>
</defs>
</svg>
