<svg width="44" height="44" viewBox="0 0 44 44" fill="none" xmlns="http://www.w3.org/2000/svg">
<g clip-path="url(#clip0_5431_361849)">
<path d="M22 0C16.1666 0 10.5669 2.31928 6.44531 6.44359C2.31953 10.5696 0.0011806 16.1651 0 22C0 27.8324 2.32031 33.4321 6.44531 37.5564C10.5669 41.6807 16.1666 44 22 44C27.8334 44 33.4331 41.6807 37.5547 37.5564C41.6797 33.4321 44 27.8324 44 22C44 16.1676 41.6797 10.5679 37.5547 6.44359C33.4331 2.31928 27.8334 0 22 0Z" fill="url(#paint0_linear_5431_361849)"/>
<path d="M8.58551 21.8762C8.58475 24.2778 9.21693 26.6223 10.4188 28.6889L8.47021 35.75L15.751 33.8553C17.7572 34.9409 20.0158 35.5132 22.3142 35.5141H22.3201C29.8894 35.5141 36.0512 29.4004 36.0544 21.8871C36.0557 18.2459 34.6282 14.822 32.0353 12.2462C29.4421 9.67084 25.9941 8.2515 22.3201 8.25C14.7495 8.25 8.58853 14.3628 8.58551 21.8762ZM12.9215 28.333L12.6497 27.9047C11.5068 26.1012 10.9037 24.0171 10.9045 21.8771C10.9069 15.6321 16.0276 10.5514 22.3244 10.5514C25.3737 10.5527 28.2395 11.7325 30.3949 13.873C32.5503 16.0138 33.7363 18.8596 33.7355 21.8863C33.7327 28.1312 28.6119 33.2126 22.3201 33.2126H22.3156C20.2669 33.2115 18.2577 32.6655 16.5054 31.6336L16.0884 31.3881L11.7678 32.5124L12.9215 28.333Z" fill="url(#paint1_linear_5431_361849)"/>
<path d="M18.8869 16.1797C18.6298 15.6126 18.3592 15.6011 18.1148 15.5912C17.9146 15.5826 17.6857 15.5833 17.457 15.5833C17.2282 15.5833 16.8563 15.6687 16.542 16.0093C16.2274 16.3503 15.3408 17.1741 15.3408 18.8498C15.3408 20.5255 16.5706 22.1451 16.742 22.3725C16.9137 22.5996 19.1161 26.1483 22.6042 27.5136C25.5031 28.6481 26.0931 28.4225 26.7222 28.3656C27.3515 28.3089 28.7527 27.5419 29.0385 26.7466C29.3246 25.9514 29.3246 25.2697 29.2388 25.1273C29.1531 24.9853 28.9242 24.9001 28.581 24.7299C28.2378 24.5596 26.5506 23.7355 26.236 23.6218C25.9214 23.5083 25.6927 23.4516 25.4638 23.7926C25.2349 24.1331 24.5778 24.9001 24.3775 25.1273C24.1774 25.3549 23.9771 25.3833 23.634 25.2129C23.2906 25.042 22.1854 24.6828 20.8742 23.5226C19.854 22.6198 19.1652 21.5049 18.965 21.1639C18.7648 20.8233 18.9436 20.6388 19.1157 20.469C19.2698 20.3164 19.459 20.0713 19.6307 19.8725C19.8018 19.6736 19.8589 19.5317 19.9734 19.3045C20.0879 19.0772 20.0306 18.8783 19.9449 18.7079C19.8589 18.5376 19.1921 16.8531 18.8869 16.1797Z" fill="white"/>
</g>
<defs>
<linearGradient id="paint0_linear_5431_361849" x1="2200" y1="4400" x2="2200" y2="0" gradientUnits="userSpaceOnUse">
<stop stop-color="#1FAF38"/>
<stop offset="1" stop-color="#60D669"/>
</linearGradient>
<linearGradient id="paint1_linear_5431_361849" x1="1387.68" y1="2758.25" x2="1387.68" y2="8.25" gradientUnits="userSpaceOnUse">
<stop stop-color="#F9F9F9"/>
<stop offset="1" stop-color="white"/>
</linearGradient>
<clipPath id="clip0_5431_361849">
<rect width="44" height="44" fill="white"/>
</clipPath>
</defs>
</svg>
