<svg width="20" height="20" viewBox="0 0 20 20" fill="none" xmlns="http://www.w3.org/2000/svg">
<path d="M18.1156 13.6781C17.9763 14.7367 17.4564 15.7084 16.6531 16.4118C15.8497 17.1151 14.8177 17.5019 13.75 17.5C7.54688 17.5 2.50001 12.4531 2.50001 6.24999C2.49809 5.18225 2.88492 4.15032 3.58824 3.34694C4.29155 2.54356 5.26326 2.02367 6.32188 1.88437C6.58958 1.85168 6.86067 1.90645 7.09468 2.04049C7.3287 2.17454 7.51308 2.38067 7.62032 2.62812L8.43699 5.47838V5.48776C8.51908 5.67717 8.55299 5.88397 8.53568 6.08969C8.51837 6.29541 8.45037 6.49363 8.33777 6.66666C8.3237 6.68776 8.30886 6.70729 8.29324 6.72682L7.08825 8.15521C6.83214 8.4588 6.78022 8.88556 7.01214 9.20801C7.84403 10.3646 9.64624 12.159 10.8119 12.9876C11.1357 13.2177 11.5624 13.1639 11.8649 12.9065L13.2685 11.7122C13.2872 11.6965 13.3067 11.6819 13.3271 11.6685C13.5 11.5532 13.6989 11.4828 13.9058 11.4637C14.1127 11.4446 14.3212 11.4774 14.5122 11.5591L14.5224 11.5638L17.3695 12.3797C17.6174 12.4865 17.8241 12.6708 17.9585 12.9048C18.093 13.1389 18.1481 13.4101 18.1156 13.6781Z" fill="black"/>
</svg>
